<svg width="113" height="69" viewBox="0 0 113 69" fill="none" xmlns="http://www.w3.org/2000/svg">
<path d="M77.2387 68.2507C80.677 67.5269 82.5894 65.7532 82.8913 63.574C83.0603 62.3482 82.6664 61.0306 83.2792 59.8324C83.5554 59.2907 84.1516 58.5439 85.0889 58.2654C86.236 57.9241 87.3092 58.4704 88.3733 58.6816C92.6704 59.5325 96.5374 57.5568 98.1826 55.321C99.1003 54.0753 99.5637 52.7011 100.149 51.3881C100.895 49.7124 101.631 48.003 102.028 46.2799C102.628 43.6692 102.448 40.7126 101.084 38.0988C100.641 36.8072 99.6769 35.6013 98.1947 34.6051C98.1675 34.5867 98.1403 34.5699 98.1132 34.5531C96.4483 33.2462 94.2568 32.2377 91.4539 31.7082C91.0297 31.6286 90.6434 31.7908 90.4471 32.0066C90.017 31.9577 89.5808 31.9209 89.1415 31.8949C85.6443 31.6929 81.3427 32.5239 78.3904 31.6011C75.349 30.6508 75.2811 28.014 74.8237 26.0552C74.3513 24.0321 73.5257 22.1391 71.3281 20.7986C66.9811 18.1465 59.872 18.4924 54.6949 21.4245C52.1471 22.866 50.9441 24.5448 49.6265 26.4286C48.9744 27.3606 48.1518 28.2895 46.5776 28.2344C45.0093 28.1793 43.9362 27.2351 43.0758 26.5005C41.5121 25.1661 39.9288 23.9219 37.2618 23.8424C35.0038 23.775 32.6809 24.505 30.8229 25.5961C26.5257 28.1181 25.6729 31.9928 26.0246 35.3993C26.4714 39.721 28.1694 43.989 30.3459 47.9357C32.0319 50.9918 34.9661 54.966 40.4752 55.1971C45.3852 55.4037 48.5895 52.6766 50.7389 49.7445C53.175 54.1304 56.2616 58.4444 60.1618 62.5105C63.585 66.0807 69.5998 69.8591 77.2387 68.2507Z" fill="#FFCCCC"/>
<path d="M40.9642 39.8878C40.2729 43.9538 39.6963 48.1867 39.2073 52.5986C39.002 54.4411 39.002 56.4428 38.5658 58.3021C37.8444 61.4117 34.0861 61.3643 31.6122 61.5831C30.4772 61.6872 29.3195 61.7729 28.1618 61.8157C27.0026 61.7729 25.8465 61.6872 24.7114 61.5831C22.2376 61.3643 18.4793 61.4117 17.7578 58.3021C17.3216 56.4428 17.3216 54.4411 17.1163 52.5986C16.6273 48.1867 16.0507 43.9523 15.3594 39.8878C14.087 32.3494 12.5294 25.3559 10.7951 18.8459C13.3097 19.0219 16.9518 19.2943 20.2528 19.5452C25.5129 19.9447 30.8107 19.9447 36.0709 19.5452C39.3733 19.2943 43.0139 19.0234 45.5285 18.8459C43.7943 25.3559 42.2366 32.3494 40.9642 39.8878Z" fill="#A1E6E6"/>
<path d="M39.0775 28.4502C38.4074 28.7027 37.7478 28.9751 37.0867 29.2582C37.2768 28.7226 37.458 28.187 37.6346 27.6422C38.27 27.3943 38.9009 27.131 39.5213 26.8586C39.3749 27.3897 39.2239 27.9237 39.0775 28.4502Z" fill="#FF7373"/>
<path d="M39.6933 26.2343C39.0624 26.522 38.4421 26.799 37.8157 27.0821C38.2307 25.7629 38.6171 24.4193 38.9885 23.0864C39.5801 22.8936 40.1673 22.6946 40.7484 22.4819C40.3922 23.7399 40.0405 24.9947 39.6933 26.2343Z" fill="#FFF7CC"/>
<path d="M40.9401 21.8116C40.3333 22.0351 39.7326 22.283 39.1409 22.5355C39.2828 22.0198 39.4247 21.4949 39.5666 20.9746C40.1779 20.7358 40.7892 20.4787 41.3959 20.2109C41.2435 20.7465 41.0925 21.276 40.9401 21.8116Z" fill="#FF7373"/>
<path d="M41.5756 19.5865C40.9597 19.8635 40.3333 20.1421 39.7175 20.419C40.0013 19.3922 40.2896 18.3669 40.5779 17.3599C41.1846 17.1564 41.7899 16.9483 42.3921 16.7249C42.1189 17.6813 41.8442 18.6347 41.5756 19.5865Z" fill="#FFF7CC"/>
<path d="M42.5928 16.0408C41.977 16.2596 41.3657 16.5075 40.759 16.76C40.8027 16.6009 40.8526 16.4479 40.8963 16.2994C41.0141 15.9276 41.1258 15.5511 41.239 15.1792C41.8593 14.9313 42.4706 14.6681 43.0728 14.3911C42.9113 14.9359 42.7544 15.4914 42.5928 16.0408Z" fill="#FF7373"/>
<path d="M43.2524 13.7652C42.6411 14.0422 42.0344 14.3161 41.4231 14.5885C41.7899 13.3735 42.1612 12.1645 42.5279 10.9494C43.1 10.7658 43.6766 10.5776 44.2441 10.3694C43.9135 11.4958 43.586 12.6297 43.2524 13.7652Z" fill="#FFF7CC"/>
<path d="M44.4463 9.68999C43.8592 9.91342 43.272 10.1506 42.6909 10.3939C42.8524 9.86904 43.0094 9.33802 43.1649 8.81312C43.7565 8.58051 44.3482 8.33719 44.9293 8.08469C44.7693 8.61418 44.6033 9.14979 44.4463 9.68999Z" fill="#FF7373"/>
<path d="M45.1105 7.4542C44.5188 7.722 43.9226 7.98981 43.3309 8.25302C43.6736 7.10834 44.0162 5.95754 44.3573 4.80674C44.9293 4.62311 45.5014 4.44559 46.078 4.25583C45.7565 5.31328 45.4335 6.37379 45.1105 7.4542Z" fill="#FFF7CC"/>
<path d="M46.2606 3.64675C45.6644 3.89008 45.0727 4.14258 44.481 4.39049C44.4961 4.33081 44.5203 4.27112 44.5354 4.21756C44.6818 3.72633 44.8236 3.24122 44.9701 2.75458C45.5663 2.53574 46.1534 2.30773 46.7451 2.07053C46.5836 2.59083 46.4221 3.11114 46.2606 3.64675Z" fill="#FF7373"/>
<path d="M46.9247 1.47064C46.324 1.73845 45.7218 2.01085 45.115 2.27406C45.1542 2.14092 45.1935 2.01697 45.2327 1.89301C45.2765 1.73998 45.4818 1.04981 45.7897 0.449921C45.9949 0.454512 46.2002 0.469815 46.4055 0.4943C46.6696 0.529497 46.9232 0.593772 47.1738 0.673348C47.0923 0.939624 47.0077 1.20743 46.9247 1.47064Z" fill="#FFF7CC"/>
<path d="M13.3746 18.2613C13.0984 18.2414 12.8237 18.22 12.5475 18.2001C12.6894 15.8067 12.5988 13.375 12.0479 11.0382C12.1838 11.0321 12.3226 11.0214 12.4554 11.0198C14.4901 10.9862 16.3436 12.0421 18.2755 12.0497C16.6575 14.1019 14.4674 15.9061 13.3746 18.2613Z" fill="#FFE359"/>
<path d="M10.2593 18.0317C10.1733 18.0256 10.0918 18.0516 10.0209 18.093C9.27975 16.0882 7.43079 14.1203 5.76898 12.8026C5.83238 12.7644 5.89124 12.7231 5.95765 12.6863C7.48362 11.8156 9.43371 11.283 11.2615 11.0963C11.4879 13.4806 11.9589 15.848 12.4313 18.1924C11.7068 18.1389 10.9823 18.0868 10.2593 18.0317Z" fill="#FFE359"/>
<path d="M5.1335 13.2296C5.94251 14.0636 6.81492 14.8211 7.59375 15.6873C8.33485 16.5091 9.09104 17.4456 9.93628 18.1572C9.83214 18.2567 9.77176 18.396 9.80195 18.5199C9.8593 18.7541 9.91364 18.9943 9.96949 19.2285C8.79219 18.9469 7.46848 19.1826 6.27457 19.2866C4.99463 19.3983 3.67243 19.5269 2.42721 19.8452C2.18119 17.3416 2.90266 14.8946 5.1335 13.2296Z" fill="#FFE359"/>
<path d="M1.04013 21.2163C0.499781 17.9277 1.36767 14.6069 3.81283 12.2915C5.87311 10.3404 8.80429 9.32118 11.5815 9.18192C14.3542 9.04419 16.5896 9.9884 19.1102 10.8699C18.9155 11.1851 18.6997 11.4927 18.4717 11.7942C17.0439 9.99911 13.7112 10.071 11.6585 10.2149C9.00805 10.4001 5.8716 11.0627 3.99395 13.1225C0.282434 17.1947 1.20314 24.0995 5.41426 27.3361C5.07767 27.8426 4.78486 28.3721 4.55543 28.9322C3.16833 26.3949 1.52464 24.1653 1.04013 21.2163Z" fill="#77D977"/>
<path d="M10.4374 21.2026C9.16956 23.2578 7.10928 24.9549 5.66331 26.9688C4.16753 25.2977 3.0008 23.0604 2.5661 20.794C2.5827 20.7924 2.59629 20.7986 2.61289 20.7955C3.87019 20.592 5.11692 20.2507 6.37271 20.0135C7.56058 19.7885 8.86919 19.7794 9.99669 19.3371C10.1461 19.9553 10.294 20.5736 10.4389 21.1995C10.4389 21.201 10.4374 21.201 10.4374 21.2026Z" fill="#FFE359"/>
<path d="M21.412 35.133C20.5607 35.1239 20.2196 35.9655 20.2196 36.694C20.5622 37.0169 21.0905 37.2847 21.3154 37.4331C21.6188 37.6321 21.8784 37.8096 22.2738 37.6902C22.7342 37.5509 23.1342 37.0704 23.1689 36.6144C23.2398 35.6885 22.2421 35.1483 21.412 35.133ZM25.6171 45.3403C25.5492 44.8444 25.5235 44.4083 25.4405 44.0074C25.4118 43.8635 25.3665 43.7197 25.3182 43.5865C25.2201 43.3432 25.0782 43.1152 24.8579 42.9071C24.2466 42.3072 24.1002 42.5 23.2987 42.7877C22.9515 42.9208 22.5999 43.0509 22.2421 43.184C21.9101 43.3126 21.4995 43.4167 21.1856 43.611C20.8777 43.9033 20.5698 44.191 20.2558 44.4787C20.28 44.6669 20.2951 44.8506 20.3102 45.0388C20.197 46.2937 20.5154 47.5623 20.6181 48.8416C20.6271 48.8615 20.6377 48.8814 20.6422 48.9013C20.6905 49.7338 21.6641 49.5701 22.4957 49.2977C22.6663 49.2487 22.8233 49.189 22.9697 49.1339C23.2036 49.0498 23.4104 48.9656 23.5372 48.9258C24.31 48.6687 25.3318 48.5891 25.7227 47.775C26.1046 47.0007 25.7242 46.0947 25.6171 45.3403ZM27.3906 48.7712C27.0389 48.6182 26.6767 48.4835 26.3204 48.3443C26.3204 48.3443 26.3204 48.3443 26.3204 48.3489C26.0759 48.6259 25.7091 48.7559 25.2835 48.8998C24.8488 49.0528 23.9628 49.4752 23.0497 49.7874C22.9032 49.8363 22.7568 49.8868 22.615 49.9205C22.4731 49.9649 22.3312 50.0047 22.1999 50.0292C22.3704 50.1042 22.547 50.1776 22.7131 50.2618C22.8263 50.3169 22.9727 50.3704 23.1146 50.4347C23.1146 50.4347 23.1146 50.4347 23.1191 50.4347C23.1191 50.4347 23.1191 50.4393 23.1236 50.4393C23.1779 50.4592 23.2262 50.4883 23.2745 50.5189C24.5756 51.1738 25.4118 50.2908 26.008 50.098C26.3703 49.9741 26.7763 49.8945 27.1627 49.7614C27.534 49.6175 27.8811 49.4293 28.1015 49.0972C27.8464 49.0544 27.6064 48.8707 27.3906 48.7712ZM28.0607 46.4804C27.9098 45.4795 27.9536 44.6761 27.2728 44.0257C27.0132 43.7686 26.8578 43.51 26.7883 43.2973C26.74 43.2728 26.7008 43.2483 26.657 43.2284C26.3099 43.0647 25.9582 42.9162 25.6005 42.7678C25.6397 42.9315 25.6744 43.1045 25.7182 43.2835C25.7273 43.3233 25.7469 43.3631 25.7574 43.4121C25.7922 43.5513 25.8314 43.6891 25.8752 43.839C26.2314 45.0097 26.8034 46.4911 26.6087 47.6817C26.5997 47.7459 26.5891 47.8102 26.5695 47.8699C26.897 47.9847 27.2245 48.1224 27.5325 48.2662C27.7483 48.3703 28.0849 48.4744 28.2902 48.6626C28.4818 47.9433 28.1588 47.1506 28.0607 46.4804ZM32.0711 34.0067C31.9685 34.0465 31.8356 34.1062 31.6953 34.1552C31.6953 34.1552 31.6953 34.1598 31.6907 34.1598C31.6907 34.1598 31.6907 34.1598 31.6862 34.1598C31.6379 34.1797 31.5836 34.1888 31.5353 34.2041C30.2493 34.625 30.284 35.7069 30.0244 36.2073C29.7014 36.8164 29.1445 37.476 29.2909 38.1952V38.1998C29.4916 38.0605 29.7799 38.0269 29.9852 37.9427C30.3278 37.8096 30.6599 37.6657 30.9874 37.5157C30.9632 37.1791 31.1247 36.8562 31.2998 36.4889C31.49 36.1124 31.7889 35.28 32.1752 34.5102C32.2386 34.3862 32.2975 34.2669 32.3654 34.149C32.4288 34.0343 32.4967 33.9256 32.5662 33.8216C32.3986 33.8889 32.2371 33.9532 32.0711 34.0067ZM34.9706 40.4723C34.9313 40.4524 34.8921 40.4325 34.8529 40.4081C34.7261 40.3331 34.5993 40.2642 34.4514 40.1953C33.3707 39.6505 31.9428 39.0445 31.253 38.1386C31.2093 38.0896 31.1791 38.0391 31.1504 37.9947C30.847 38.134 30.5391 38.258 30.2312 38.3666C30.0154 38.4416 29.7225 38.5946 29.4539 38.6099C29.8116 39.2052 30.5693 39.5174 31.1021 39.8939C31.9036 40.4693 32.4424 41.0493 33.3707 41.0294C33.7269 41.0248 34.0257 41.0936 34.2355 41.1931C34.2793 41.1839 34.3231 41.1686 34.3729 41.1533C34.7246 41.0294 35.0777 40.8855 35.4249 40.7417C35.283 40.656 35.1321 40.5657 34.9706 40.4723ZM37.7372 36.0206C37.5908 35.912 37.4384 35.8018 37.2965 35.6977C36.4603 34.8453 35.36 34.2608 34.397 33.5461C34.3774 33.5461 34.3623 33.5369 34.3427 33.5216C33.7359 33.061 33.2182 33.7695 32.8665 34.4582C32.7881 34.5974 32.7292 34.7306 32.6703 34.8591C32.5722 35.0672 32.4937 35.2402 32.4409 35.3503C32.1028 36.0099 31.487 36.7185 31.7813 37.4913C32.0605 38.2442 32.9496 38.587 33.5518 39.0185C33.9533 39.2955 34.2853 39.574 34.6325 39.7867C34.7593 39.8663 34.8861 39.9306 35.0234 39.9857C35.2634 40.0852 35.5275 40.1448 35.8309 40.1387C36.6913 40.1234 36.643 39.8954 36.966 39.1517C37.1078 38.8288 37.2452 38.5028 37.3765 38.1753C37.5078 37.8723 37.704 37.5265 37.7674 37.1944C37.7569 36.798 37.7478 36.4063 37.7372 36.0206ZM37.7372 36.0206C37.5908 35.912 37.4384 35.8018 37.2965 35.6977C36.4603 34.8453 35.36 34.2608 34.397 33.5461C34.3774 33.5461 34.3623 33.5369 34.3427 33.5216C33.7359 33.061 33.2182 33.7695 32.8665 34.4582C32.7881 34.5974 32.7292 34.7306 32.6703 34.8591C32.5722 35.0672 32.4937 35.2402 32.4409 35.3503C32.1028 36.0099 31.487 36.7185 31.7813 37.4913C32.0605 38.2442 32.9496 38.587 33.5518 39.0185C33.9533 39.2955 34.2853 39.574 34.6325 39.7867C34.7593 39.8663 34.8861 39.9306 35.0234 39.9857C35.2634 40.0852 35.5275 40.1448 35.8309 40.1387C36.6913 40.1234 36.643 39.8954 36.966 39.1517C37.1078 38.8288 37.2452 38.5028 37.3765 38.1753C37.5078 37.8723 37.704 37.5265 37.7674 37.1944C37.7569 36.798 37.7478 36.4063 37.7372 36.0206ZM34.9706 40.4723C34.9313 40.4524 34.8921 40.4325 34.8529 40.4081C34.7261 40.3331 34.5993 40.2642 34.4514 40.1953C33.3707 39.6505 31.9428 39.0445 31.253 38.1386C31.2093 38.0896 31.1791 38.0391 31.1504 37.9947C30.847 38.134 30.5391 38.258 30.2312 38.3666C30.0154 38.4416 29.7225 38.5946 29.4539 38.6099C29.8116 39.2052 30.5693 39.5174 31.1021 39.8939C31.9036 40.4693 32.4424 41.0493 33.3707 41.0294C33.7269 41.0248 34.0257 41.0936 34.2355 41.1931C34.2793 41.1839 34.3231 41.1686 34.3729 41.1533C34.7246 41.0294 35.0777 40.8855 35.4249 40.7417C35.283 40.656 35.1321 40.5657 34.9706 40.4723ZM32.0711 34.0067C31.9685 34.0465 31.8356 34.1062 31.6953 34.1552C31.6953 34.1552 31.6953 34.1598 31.6907 34.1598C31.6907 34.1598 31.6907 34.1598 31.6862 34.1598C31.6379 34.1797 31.5836 34.1888 31.5353 34.2041C30.2493 34.625 30.284 35.7069 30.0244 36.2073C29.7014 36.8164 29.1445 37.476 29.2909 38.1952V38.1998C29.4916 38.0605 29.7799 38.0269 29.9852 37.9427C30.3278 37.8096 30.6599 37.6657 30.9874 37.5157C30.9632 37.1791 31.1247 36.8562 31.2998 36.4889C31.49 36.1124 31.7889 35.28 32.1752 34.5102C32.2386 34.3862 32.2975 34.2669 32.3654 34.149C32.4288 34.0343 32.4967 33.9256 32.5662 33.8216C32.3986 33.8889 32.2371 33.9532 32.0711 34.0067ZM28.0607 46.4804C27.9098 45.4795 27.9536 44.6761 27.2728 44.0257C27.0132 43.7686 26.8578 43.51 26.7883 43.2973C26.74 43.2728 26.7008 43.2483 26.657 43.2284C26.3099 43.0647 25.9582 42.9162 25.6005 42.7678C25.6397 42.9315 25.6744 43.1045 25.7182 43.2835C25.7273 43.3233 25.7469 43.3631 25.7574 43.4121C25.7922 43.5513 25.8314 43.6891 25.8752 43.839C26.2314 45.0097 26.8034 46.4911 26.6087 47.6817C26.5997 47.7459 26.5891 47.8102 26.5695 47.8699C26.897 47.9847 27.2245 48.1224 27.5325 48.2662C27.7483 48.3703 28.0849 48.4744 28.2902 48.6626C28.4818 47.9433 28.1588 47.1506 28.0607 46.4804ZM27.3906 48.7712C27.0389 48.6182 26.6767 48.4835 26.3204 48.3443C26.3204 48.3443 26.3204 48.3443 26.3204 48.3489C26.0759 48.6259 25.7091 48.7559 25.2835 48.8998C24.8488 49.0528 23.9628 49.4752 23.0497 49.7874C22.9032 49.8363 22.7568 49.8868 22.615 49.9205C22.4731 49.9649 22.3312 50.0047 22.1999 50.0292C22.3704 50.1042 22.547 50.1776 22.7131 50.2618C22.8263 50.3169 22.9727 50.3704 23.1146 50.4347C23.1146 50.4347 23.1146 50.4347 23.1191 50.4347C23.1191 50.4347 23.1191 50.4393 23.1236 50.4393C23.1779 50.4592 23.2262 50.4883 23.2745 50.5189C24.5756 51.1738 25.4118 50.2908 26.008 50.098C26.3703 49.9741 26.7763 49.8945 27.1627 49.7614C27.534 49.6175 27.8811 49.4293 28.1015 49.0972C27.8464 49.0544 27.6064 48.8707 27.3906 48.7712ZM25.6171 45.3403C25.5492 44.8444 25.5235 44.4083 25.4405 44.0074C25.4118 43.8635 25.3665 43.7197 25.3182 43.5865C25.2201 43.3432 25.0782 43.1152 24.8579 42.9071C24.2466 42.3072 24.1002 42.5 23.2987 42.7877C22.9515 42.9208 22.5999 43.0509 22.2421 43.184C21.9101 43.3126 21.4995 43.4167 21.1856 43.611C20.8777 43.9033 20.5698 44.191 20.2558 44.4787C20.28 44.6669 20.2951 44.8506 20.3102 45.0388C20.197 46.2937 20.5154 47.5623 20.6181 48.8416C20.6271 48.8615 20.6377 48.8814 20.6422 48.9013C20.6905 49.7338 21.6641 49.5701 22.4957 49.2977C22.6663 49.2487 22.8233 49.189 22.9697 49.1339C23.2036 49.0498 23.4104 48.9656 23.5372 48.9258C24.31 48.6687 25.3318 48.5891 25.7227 47.775C26.1046 47.0007 25.7242 46.0947 25.6171 45.3403ZM25.6171 45.3403C25.5492 44.8444 25.5235 44.4083 25.4405 44.0074C25.4118 43.8635 25.3665 43.7197 25.3182 43.5865C25.2201 43.3432 25.0782 43.1152 24.8579 42.9071C24.2466 42.3072 24.1002 42.5 23.2987 42.7877C22.9515 42.9208 22.5999 43.0509 22.2421 43.184C21.9101 43.3126 21.4995 43.4167 21.1856 43.611C20.8777 43.9033 20.5698 44.191 20.2558 44.4787C20.28 44.6669 20.2951 44.8506 20.3102 45.0388C20.197 46.2937 20.5154 47.5623 20.6181 48.8416C20.6271 48.8615 20.6377 48.8814 20.6422 48.9013C20.6905 49.7338 21.6641 49.5701 22.4957 49.2977C22.6663 49.2487 22.8233 49.189 22.9697 49.1339C23.2036 49.0498 23.4104 48.9656 23.5372 48.9258C24.31 48.6687 25.3318 48.5891 25.7227 47.775C26.1046 47.0007 25.7242 46.0947 25.6171 45.3403ZM27.3906 48.7712C27.0389 48.6182 26.6767 48.4835 26.3204 48.3443C26.3204 48.3443 26.3204 48.3443 26.3204 48.3489C26.0759 48.6259 25.7091 48.7559 25.2835 48.8998C24.8488 49.0528 23.9628 49.4752 23.0497 49.7874C22.9032 49.8363 22.7568 49.8868 22.615 49.9205C22.4731 49.9649 22.3312 50.0047 22.1999 50.0292C22.3704 50.1042 22.547 50.1776 22.7131 50.2618C22.8263 50.3169 22.9727 50.3704 23.1146 50.4347C23.1146 50.4347 23.1146 50.4347 23.1191 50.4347C23.1191 50.4347 23.1191 50.4393 23.1236 50.4393C23.1779 50.4592 23.2262 50.4883 23.2745 50.5189C24.5756 51.1738 25.4118 50.2908 26.008 50.098C26.3703 49.9741 26.7763 49.8945 27.1627 49.7614C27.534 49.6175 27.8811 49.4293 28.1015 49.0972C27.8464 49.0544 27.6064 48.8707 27.3906 48.7712ZM28.2328 55.8413C28.1256 55.0532 27.3725 54.4089 26.6782 55.0134C26.4819 55.1971 26.3219 55.4985 26.2042 55.8168C26.2329 55.901 26.2329 55.9959 26.1695 56.0999C25.6714 56.833 27.143 57.8108 27.7543 57.4328C28.1936 57.1543 28.2962 56.3065 28.2328 55.8413ZM28.0607 46.4804C27.9098 45.4795 27.9536 44.6761 27.2728 44.0257C27.0132 43.7686 26.8578 43.51 26.7883 43.2973C26.74 43.2728 26.7008 43.2483 26.657 43.2284C26.3099 43.0647 25.9582 42.9162 25.6005 42.7678C25.6397 42.9315 25.6744 43.1045 25.7182 43.2835C25.7273 43.3233 25.7469 43.3631 25.7574 43.4121C25.7922 43.5513 25.8314 43.6891 25.8752 43.839C26.2314 45.0097 26.8034 46.4911 26.6087 47.6817C26.5997 47.7459 26.5891 47.8102 26.5695 47.8699C26.897 47.9847 27.2245 48.1224 27.5325 48.2662C27.7483 48.3703 28.0849 48.4744 28.2902 48.6626C28.4818 47.9433 28.1588 47.1506 28.0607 46.4804ZM32.0711 34.0067C31.9685 34.0465 31.8356 34.1062 31.6953 34.1552C31.6953 34.1552 31.6953 34.1598 31.6907 34.1598C31.6907 34.1598 31.6907 34.1598 31.6862 34.1598C31.6379 34.1797 31.5836 34.1888 31.5353 34.2041C30.2493 34.625 30.284 35.7069 30.0244 36.2073C29.7014 36.8164 29.1445 37.476 29.2909 38.1952V38.1998C29.4916 38.0605 29.7799 38.0269 29.9852 37.9427C30.3278 37.8096 30.6599 37.6657 30.9874 37.5157C30.9632 37.1791 31.1247 36.8562 31.2998 36.4889C31.49 36.1124 31.7889 35.28 32.1752 34.5102C32.2386 34.3862 32.2975 34.2669 32.3654 34.149C32.4288 34.0343 32.4967 33.9256 32.5662 33.8216C32.3986 33.8889 32.2371 33.9532 32.0711 34.0067ZM34.6521 45.1719C34.4363 44.9393 34.065 44.8689 33.7722 44.8291C32.8575 44.6899 32.1103 45.0969 32.2326 46.0932C32.2371 46.1728 32.2175 46.2263 32.1843 46.2722C32.2386 46.4957 32.3503 46.713 32.5118 46.8874C33.2016 47.6021 34.2325 47.1644 34.634 46.4069C34.8181 46.0641 34.9464 45.4994 34.6521 45.1719ZM34.9706 40.4723C34.9313 40.4524 34.8921 40.4325 34.8529 40.4081C34.7261 40.3331 34.5993 40.2642 34.4514 40.1953C33.3707 39.6505 31.9428 39.0445 31.253 38.1386C31.2093 38.0896 31.1791 38.0391 31.1504 37.9947C30.847 38.134 30.5391 38.258 30.2312 38.3666C30.0154 38.4416 29.7225 38.5946 29.4539 38.6099C29.8116 39.2052 30.5693 39.5174 31.1021 39.8939C31.9036 40.4693 32.4424 41.0493 33.3707 41.0294C33.7269 41.0248 34.0257 41.0936 34.2355 41.1931C34.2793 41.1839 34.3231 41.1686 34.3729 41.1533C34.7246 41.0294 35.0777 40.8855 35.4249 40.7417C35.283 40.656 35.1321 40.5657 34.9706 40.4723ZM37.7372 36.0206C37.5908 35.912 37.4384 35.8018 37.2965 35.6977C36.4603 34.8453 35.36 34.2608 34.397 33.5461C34.3774 33.5461 34.3623 33.5369 34.3427 33.5216C33.7359 33.061 33.2182 33.7695 32.8665 34.4582C32.7881 34.5974 32.7292 34.7306 32.6703 34.8591C32.5722 35.0672 32.4937 35.2402 32.4409 35.3503C32.1028 36.0099 31.487 36.7185 31.7813 37.4913C32.0605 38.2442 32.9496 38.587 33.5518 39.0185C33.9533 39.2955 34.2853 39.574 34.6325 39.7867C34.7593 39.8663 34.8861 39.9306 35.0234 39.9857C35.2634 40.0852 35.5275 40.1448 35.8309 40.1387C36.6913 40.1234 36.643 39.8954 36.966 39.1517C37.1078 38.8288 37.2452 38.5028 37.3765 38.1753C37.5078 37.8723 37.704 37.5265 37.7674 37.1944C37.7569 36.798 37.7478 36.4063 37.7372 36.0206ZM37.7372 36.0206C37.5908 35.912 37.4384 35.8018 37.2965 35.6977C36.4603 34.8453 35.36 34.2608 34.397 33.5461C34.3774 33.5461 34.3623 33.5369 34.3427 33.5216C33.7359 33.061 33.2182 33.7695 32.8665 34.4582C32.7881 34.5974 32.7292 34.7306 32.6703 34.8591C32.5722 35.0672 32.4937 35.2402 32.4409 35.3503C32.1028 36.0099 31.487 36.7185 31.7813 37.4913C32.0605 38.2442 32.9496 38.587 33.5518 39.0185C33.9533 39.2955 34.2853 39.574 34.6325 39.7867C34.7593 39.8663 34.8861 39.9306 35.0234 39.9857C35.2634 40.0852 35.5275 40.1448 35.8309 40.1387C36.6913 40.1234 36.643 39.8954 36.966 39.1517C37.1078 38.8288 37.2452 38.5028 37.3765 38.1753C37.5078 37.8723 37.704 37.5265 37.7674 37.1944C37.7569 36.798 37.7478 36.4063 37.7372 36.0206ZM34.8529 40.4081C34.7261 40.3331 34.5993 40.2642 34.4514 40.1953C33.3707 39.6505 31.9428 39.0445 31.253 38.1386C31.2093 38.0896 31.1791 38.0391 31.1504 37.9947C30.847 38.134 30.5391 38.258 30.2312 38.3666C30.0154 38.4416 29.7225 38.5946 29.4539 38.6099C29.8116 39.2052 30.5693 39.5174 31.1021 39.8939C31.9036 40.4693 32.4424 41.0493 33.3707 41.0294C33.7269 41.0248 34.0257 41.0936 34.2355 41.1931C34.2793 41.1839 34.3231 41.1686 34.3729 41.1533C34.7246 41.0294 35.0777 40.8855 35.4249 40.7417C35.283 40.6575 35.1321 40.5687 34.9706 40.4739C34.9313 40.4524 34.8921 40.4325 34.8529 40.4081ZM29.9821 37.9442C30.3248 37.8111 30.6568 37.6672 30.9844 37.5173C30.9602 37.1806 31.1217 36.8577 31.2968 36.4904C31.487 36.114 31.7858 35.2815 32.1722 34.5117C32.2356 34.3878 32.2945 34.2684 32.3624 34.1506C32.4258 34.0358 32.4937 33.9272 32.5632 33.8231C32.3971 33.8874 32.2356 33.9516 32.0696 34.0067C31.967 34.0465 31.8341 34.1062 31.6938 34.1552C31.6938 34.1552 31.6938 34.1598 31.6892 34.1598C31.6892 34.1598 31.6892 34.1598 31.6847 34.1598C31.6364 34.1797 31.5821 34.1888 31.5338 34.2041C30.2478 34.625 30.2825 35.7069 30.0229 36.2073C29.6999 36.8164 29.1429 37.476 29.2894 38.1952V38.1998C29.4886 38.0621 29.7769 38.0284 29.9821 37.9442ZM34.6521 45.1719C34.4363 44.9393 34.065 44.8689 33.7722 44.8291C32.8575 44.6899 32.1103 45.0969 32.2326 46.0932C32.2371 46.1728 32.2175 46.2263 32.1843 46.2722C32.2386 46.4957 32.3503 46.713 32.5118 46.8874C33.2016 47.6021 34.2325 47.1644 34.634 46.4069C34.8181 46.0641 34.9464 45.4994 34.6521 45.1719ZM28.0607 46.4804C27.9098 45.4795 27.9536 44.6761 27.2728 44.0257C27.0132 43.7686 26.8578 43.51 26.7883 43.2973C26.74 43.2728 26.7008 43.2483 26.657 43.2284C26.3099 43.0647 25.9582 42.9162 25.6005 42.7678C25.6397 42.9315 25.6744 43.1045 25.7182 43.2835C25.7273 43.3233 25.7469 43.3631 25.7574 43.4121C25.7922 43.5513 25.8314 43.6891 25.8752 43.839C26.2314 45.0097 26.8034 46.4911 26.6087 47.6817C26.5997 47.7459 26.5891 47.8102 26.5695 47.8699C26.897 47.9847 27.2245 48.1224 27.5325 48.2662C27.7483 48.3703 28.0849 48.4744 28.2902 48.6626C28.4818 47.9433 28.1588 47.1506 28.0607 46.4804ZM26.3204 48.3443C26.3204 48.3443 26.3204 48.3443 26.3204 48.3489C26.0759 48.6259 25.7091 48.7559 25.2835 48.8998C24.8488 49.0528 23.9628 49.4752 23.0497 49.7874C22.9032 49.8363 22.7568 49.8868 22.615 49.9205C22.4731 49.9649 22.3312 50.0047 22.1999 50.0292C22.3704 50.1042 22.547 50.1776 22.7131 50.2618C22.8263 50.3169 22.9727 50.3704 23.1146 50.4347C23.1146 50.4347 23.1146 50.4347 23.1191 50.4347C23.1191 50.4347 23.1191 50.4393 23.1236 50.4393C23.1779 50.4592 23.2262 50.4883 23.2745 50.5189C24.5756 51.1738 25.4118 50.2908 26.008 50.098C26.3703 49.9741 26.7763 49.8945 27.1627 49.7614C27.534 49.6175 27.8811 49.4293 28.1015 49.0972C27.8479 49.0528 27.6079 48.8692 27.3921 48.7697C27.0389 48.6167 26.6782 48.4835 26.3204 48.3443ZM22.9712 49.1324C23.2051 49.0482 23.4119 48.9641 23.5387 48.9243C24.3115 48.6672 25.3333 48.5876 25.7242 47.7735C26.1061 47.0007 25.7242 46.0932 25.6171 45.3387C25.5492 44.8429 25.5235 44.4068 25.4405 44.0058C25.4118 43.862 25.3665 43.7181 25.3182 43.585C25.2201 43.3417 25.0782 43.1137 24.8579 42.9055C24.2466 42.3056 24.1002 42.4985 23.2987 42.7862C22.9515 42.9193 22.5999 43.0494 22.2421 43.1825C21.9101 43.3111 21.4995 43.4151 21.1856 43.6095C20.8777 43.9018 20.5698 44.1895 20.2558 44.4772C20.28 44.6654 20.2951 44.849 20.3102 45.0373C20.197 46.2921 20.5154 47.5608 20.6181 48.8401C20.6271 48.86 20.6377 48.8799 20.6422 48.8998C20.6905 49.7323 21.6641 49.5685 22.4957 49.2961C22.6678 49.2472 22.8248 49.1875 22.9712 49.1324ZM28.2328 55.8413C28.1256 55.0532 27.3725 54.4089 26.6782 55.0134C26.4819 55.1971 26.3219 55.4985 26.2042 55.8168C26.2329 55.901 26.2329 55.9959 26.1695 56.0999C25.6714 56.833 27.143 57.8108 27.7543 57.4328C28.1936 57.1543 28.2962 56.3065 28.2328 55.8413ZM21.412 35.133C20.5607 35.1239 20.2196 35.9655 20.2196 36.694C20.5622 37.0169 21.0905 37.2847 21.3154 37.4331C21.6188 37.6321 21.8784 37.8096 22.2738 37.6902C22.7342 37.5509 23.1342 37.0704 23.1689 36.6144C23.2398 35.6885 22.2421 35.1483 21.412 35.133ZM37.7372 36.0206C37.5908 35.912 37.4384 35.8018 37.2965 35.6977C36.4603 34.8453 35.36 34.2608 34.397 33.5461C34.3774 33.5461 34.3623 33.5369 34.3427 33.5216C33.7359 33.061 33.2182 33.7695 32.8665 34.4582C32.7881 34.5974 32.7292 34.7306 32.6703 34.8591C32.5722 35.0672 32.4937 35.2402 32.4409 35.3503C32.1028 36.0099 31.487 36.7185 31.7813 37.4913C32.0605 38.2442 32.9496 38.587 33.5518 39.0185C33.9533 39.2955 34.2853 39.574 34.6325 39.7867C34.7593 39.8663 34.8861 39.9306 35.0234 39.9857C35.2634 40.0852 35.5275 40.1448 35.8309 40.1387C36.6913 40.1234 36.643 39.8954 36.966 39.1517C37.1078 38.8288 37.2452 38.5028 37.3765 38.1753C37.5078 37.8723 37.704 37.5265 37.7674 37.1944C37.7569 36.798 37.7478 36.4063 37.7372 36.0206ZM34.8529 40.4081C34.7261 40.3331 34.5993 40.2642 34.4514 40.1953C33.3707 39.6505 31.9428 39.0445 31.253 38.1386C31.2093 38.0896 31.1791 38.0391 31.1504 37.9947C30.847 38.134 30.5391 38.258 30.2312 38.3666C30.0154 38.4416 29.7225 38.5946 29.4539 38.6099C29.8116 39.2052 30.5693 39.5174 31.1021 39.8939C31.9036 40.4693 32.4424 41.0493 33.3707 41.0294C33.7269 41.0248 34.0257 41.0936 34.2355 41.1931C34.2793 41.1839 34.3231 41.1686 34.3729 41.1533C34.7246 41.0294 35.0777 40.8855 35.4249 40.7417C35.283 40.6575 35.1321 40.5687 34.9706 40.4739C34.9313 40.4524 34.8921 40.4325 34.8529 40.4081ZM33.7722 44.8291C32.8575 44.6899 32.1103 45.0969 32.2326 46.0932C32.2371 46.1728 32.2175 46.2263 32.1843 46.2722C32.2386 46.4957 32.3503 46.713 32.5118 46.8874C33.2016 47.6021 34.2325 47.1644 34.634 46.4069C34.8197 46.0641 34.9464 45.4994 34.6536 45.1719C34.4378 44.9393 34.0665 44.8689 33.7722 44.8291ZM29.9821 37.9442C30.3248 37.8111 30.6568 37.6672 30.9844 37.5173C30.9602 37.1806 31.1217 36.8577 31.2968 36.4904C31.487 36.114 31.7858 35.2815 32.1722 34.5117C32.2356 34.3878 32.2945 34.2684 32.3624 34.1506C32.4258 34.0358 32.4937 33.9272 32.5632 33.8231C32.3971 33.8874 32.2356 33.9516 32.0696 34.0067C31.967 34.0465 31.8341 34.1062 31.6938 34.1552C31.6938 34.1552 31.6938 34.1598 31.6892 34.1598C31.6892 34.1598 31.6892 34.1598 31.6847 34.1598C31.6364 34.1797 31.5821 34.1888 31.5338 34.2041C30.2478 34.625 30.2825 35.7069 30.0229 36.2073C29.6999 36.8164 29.1429 37.476 29.2894 38.1952V38.1998C29.4886 38.0621 29.7769 38.0284 29.9821 37.9442ZM27.2744 44.0273C27.0147 43.7702 26.8593 43.5115 26.7899 43.2988C26.7416 43.2743 26.7023 43.2499 26.6585 43.23C26.3114 43.0662 25.9597 42.9178 25.602 42.7693C25.6412 42.9331 25.6759 43.106 25.7197 43.2851C25.7288 43.3248 25.7484 43.3646 25.759 43.4136C25.7937 43.5529 25.8329 43.6906 25.8767 43.8406C26.2329 45.0113 26.8049 46.4926 26.6102 47.6832C26.6012 47.7475 26.5906 47.8117 26.571 47.8714C26.8985 47.9862 27.2261 48.1239 27.534 48.2678C27.7498 48.3718 28.0864 48.4759 28.2917 48.6641C28.4818 47.9449 28.1603 47.1522 28.0622 46.4834C27.9098 45.4795 27.9536 44.6761 27.2744 44.0273ZM26.6782 55.0134C26.4819 55.1971 26.3219 55.4985 26.2042 55.8168C26.2329 55.901 26.2329 55.9959 26.1695 56.0999C25.6714 56.833 27.143 57.8108 27.7543 57.4328C28.1951 57.1559 28.2977 56.3081 28.2328 55.8413C28.1241 55.0517 27.3725 54.4074 26.6782 55.0134ZM28.1 49.0987C27.8464 49.0544 27.6064 48.8707 27.3906 48.7712C27.0389 48.6182 26.6767 48.4835 26.3204 48.3443C26.3204 48.3443 26.3204 48.3443 26.3204 48.3489C26.0759 48.6259 25.7091 48.7559 25.2835 48.8998C24.8488 49.0528 23.9628 49.4752 23.0497 49.7874C22.9032 49.8363 22.7568 49.8868 22.615 49.9205C22.4731 49.9649 22.3312 50.0047 22.1999 50.0292C22.3704 50.1042 22.547 50.1776 22.7131 50.2618C22.8263 50.3169 22.9727 50.3704 23.1146 50.4347C23.1146 50.4347 23.1146 50.4347 23.1191 50.4347C23.1191 50.4347 23.1191 50.4393 23.1236 50.4393C23.1779 50.4592 23.2262 50.4883 23.2745 50.5189C24.5756 51.1738 25.4118 50.2908 26.008 50.098C26.3703 49.9741 26.7763 49.8945 27.1627 49.7614C27.5325 49.619 27.8796 49.4308 28.1 49.0987ZM22.9712 49.1324C23.2051 49.0482 23.4119 48.9641 23.5387 48.9243C24.3115 48.6672 25.3333 48.5876 25.7242 47.7735C26.1061 47.0007 25.7242 46.0932 25.6171 45.3387C25.5492 44.8429 25.5235 44.4068 25.4405 44.0058C25.4118 43.862 25.3665 43.7181 25.3182 43.585C25.2201 43.3417 25.0782 43.1137 24.8579 42.9055C24.2466 42.3056 24.1002 42.4985 23.2987 42.7862C22.9515 42.9193 22.5999 43.0494 22.2421 43.1825C21.9101 43.3111 21.4995 43.4151 21.1856 43.6095C20.8777 43.9018 20.5698 44.1895 20.2558 44.4772C20.28 44.6654 20.2951 44.849 20.3102 45.0373C20.197 46.2921 20.5154 47.5608 20.6181 48.8401C20.6271 48.86 20.6377 48.8799 20.6422 48.8998C20.6905 49.7323 21.6641 49.5685 22.4957 49.2961C22.6678 49.2472 22.8248 49.1875 22.9712 49.1324ZM22.2723 37.6902C22.7327 37.5509 23.1327 37.0704 23.1674 36.6144C23.2413 35.687 22.2437 35.1468 21.412 35.1315C20.5607 35.1223 20.2196 35.964 20.2196 36.6924C20.5622 37.0153 21.0905 37.2831 21.3154 37.4316C21.6173 37.6321 21.8754 37.8096 22.2723 37.6902ZM25.6171 45.3403C25.5492 44.8444 25.5235 44.4083 25.4405 44.0074C25.4118 43.8635 25.3665 43.7197 25.3182 43.5865C25.2201 43.3432 25.0782 43.1152 24.8579 42.9071C24.2466 42.3072 24.1002 42.5 23.2987 42.7877C22.9515 42.9208 22.5999 43.0509 22.2421 43.184C21.9101 43.3126 21.4995 43.4167 21.1856 43.611C20.8777 43.9033 20.5698 44.191 20.2558 44.4787C20.28 44.6669 20.2951 44.8506 20.3102 45.0388C20.197 46.2937 20.5154 47.5623 20.6181 48.8416C20.6271 48.8615 20.6377 48.8814 20.6422 48.9013C20.6905 49.7338 21.6641 49.5701 22.4957 49.2977C22.6663 49.2487 22.8233 49.189 22.9697 49.1339C23.2036 49.0498 23.4104 48.9656 23.5372 48.9258C24.31 48.6687 25.3318 48.5891 25.7227 47.775C26.1046 47.0007 25.7242 46.0947 25.6171 45.3403ZM27.3906 48.7712C27.0389 48.6182 26.6767 48.4835 26.3204 48.3443C26.3204 48.3443 26.3204 48.3443 26.3204 48.3489C26.0759 48.6259 25.7091 48.7559 25.2835 48.8998C24.8488 49.0528 23.9628 49.4752 23.0497 49.7874C22.9032 49.8363 22.7568 49.8868 22.615 49.9205C22.4731 49.9649 22.3312 50.0047 22.1999 50.0292C22.3704 50.1042 22.547 50.1776 22.7131 50.2618C22.8263 50.3169 22.9727 50.3704 23.1146 50.4347C23.1146 50.4347 23.1146 50.4347 23.1191 50.4347C23.1191 50.4347 23.1191 50.4393 23.1236 50.4393C23.1779 50.4592 23.2262 50.4883 23.2745 50.5189C24.5756 51.1738 25.4118 50.2908 26.008 50.098C26.3703 49.9741 26.7763 49.8945 27.1627 49.7614C27.534 49.6175 27.8811 49.4293 28.1015 49.0972C27.8464 49.0544 27.6064 48.8707 27.3906 48.7712ZM28.0607 46.4804C27.9098 45.4795 27.9536 44.6761 27.2728 44.0257C27.0132 43.7686 26.8578 43.51 26.7883 43.2973C26.74 43.2728 26.7008 43.2483 26.657 43.2284C26.3099 43.0647 25.9582 42.9162 25.6005 42.7678C25.6397 42.9315 25.6744 43.1045 25.7182 43.2835C25.7273 43.3233 25.7469 43.3631 25.7574 43.4121C25.7922 43.5513 25.8314 43.6891 25.8752 43.839C26.2314 45.0097 26.8034 46.4911 26.6087 47.6817C26.5997 47.7459 26.5891 47.8102 26.5695 47.8699C26.897 47.9847 27.2245 48.1224 27.5325 48.2662C27.7483 48.3703 28.0849 48.4744 28.2902 48.6626C28.4818 47.9433 28.1588 47.1506 28.0607 46.4804ZM34.6521 45.1719C34.4363 44.9393 34.065 44.8689 33.7722 44.8291C32.8575 44.6899 32.1103 45.0969 32.2326 46.0932C32.2371 46.1728 32.2175 46.2263 32.1843 46.2722C32.2386 46.4957 32.3503 46.713 32.5118 46.8874C33.2016 47.6021 34.2325 47.1644 34.634 46.4069C34.8181 46.0641 34.9464 45.4994 34.6521 45.1719ZM32.0711 34.0067C31.9685 34.0465 31.8356 34.1062 31.6953 34.1552C31.6953 34.1552 31.6953 34.1598 31.6907 34.1598C31.6907 34.1598 31.6907 34.1598 31.6862 34.1598C31.6379 34.1797 31.5836 34.1888 31.5353 34.2041C30.2493 34.625 30.284 35.7069 30.0244 36.2073C29.7014 36.8164 29.1445 37.476 29.2909 38.1952V38.1998C29.4916 38.0605 29.7799 38.0269 29.9852 37.9427C30.3278 37.8096 30.6599 37.6657 30.9874 37.5157C30.9632 37.1791 31.1247 36.8562 31.2998 36.4889C31.49 36.1124 31.7889 35.28 32.1752 34.5102C32.2386 34.3862 32.2975 34.2669 32.3654 34.149C32.4288 34.0343 32.4967 33.9256 32.5662 33.8216C32.3986 33.8889 32.2371 33.9532 32.0711 34.0067ZM34.9706 40.4723C34.9313 40.4524 34.8921 40.4325 34.8529 40.4081C34.7261 40.3331 34.5993 40.2642 34.4514 40.1953C33.3707 39.6505 31.9428 39.0445 31.253 38.1386C31.2093 38.0896 31.1791 38.0391 31.1504 37.9947C30.847 38.134 30.5391 38.258 30.2312 38.3666C30.0154 38.4416 29.7225 38.5946 29.4539 38.6099C29.8116 39.2052 30.5693 39.5174 31.1021 39.8939C31.9036 40.4693 32.4424 41.0493 33.3707 41.0294C33.7269 41.0248 34.0257 41.0936 34.2355 41.1931C34.2793 41.1839 34.3231 41.1686 34.3729 41.1533C34.7246 41.0294 35.0777 40.8855 35.4249 40.7417C35.283 40.656 35.1321 40.5657 34.9706 40.4723ZM37.7372 36.0206C37.5908 35.912 37.4384 35.8018 37.2965 35.6977C36.4603 34.8453 35.36 34.2608 34.397 33.5461C34.3774 33.5461 34.3623 33.5369 34.3427 33.5216C33.7359 33.061 33.2182 33.7695 32.8665 34.4582C32.7881 34.5974 32.7292 34.7306 32.6703 34.8591C32.5722 35.0672 32.4937 35.2402 32.4409 35.3503C32.1028 36.0099 31.487 36.7185 31.7813 37.4913C32.0605 38.2442 32.9496 38.587 33.5518 39.0185C33.9533 39.2955 34.2853 39.574 34.6325 39.7867C34.7593 39.8663 34.8861 39.9306 35.0234 39.9857C35.2634 40.0852 35.5275 40.1448 35.8309 40.1387C36.6913 40.1234 36.643 39.8954 36.966 39.1517C37.1078 38.8288 37.2452 38.5028 37.3765 38.1753C37.5078 37.8723 37.704 37.5265 37.7674 37.1944C37.7569 36.798 37.7478 36.4063 37.7372 36.0206ZM37.7372 36.0206C37.5908 35.912 37.4384 35.8018 37.2965 35.6977C36.4603 34.8453 35.36 34.2608 34.397 33.5461C34.3774 33.5461 34.3623 33.5369 34.3427 33.5216C33.7359 33.061 33.2182 33.7695 32.8665 34.4582C32.7881 34.5974 32.7292 34.7306 32.6703 34.8591C32.5722 35.0672 32.4937 35.2402 32.4409 35.3503C32.1028 36.0099 31.487 36.7185 31.7813 37.4913C32.0605 38.2442 32.9496 38.587 33.5518 39.0185C33.9533 39.2955 34.2853 39.574 34.6325 39.7867C34.7593 39.8663 34.8861 39.9306 35.0234 39.9857C35.2634 40.0852 35.5275 40.1448 35.8309 40.1387C36.6913 40.1234 36.643 39.8954 36.966 39.1517C37.1078 38.8288 37.2452 38.5028 37.3765 38.1753C37.5078 37.8723 37.704 37.5265 37.7674 37.1944C37.7569 36.798 37.7478 36.4063 37.7372 36.0206ZM34.9706 40.4723C34.9313 40.4524 34.8921 40.4325 34.8529 40.4081C34.7261 40.3331 34.5993 40.2642 34.4514 40.1953C33.3707 39.6505 31.9428 39.0445 31.253 38.1386C31.2093 38.0896 31.1791 38.0391 31.1504 37.9947C30.847 38.134 30.5391 38.258 30.2312 38.3666C30.0154 38.4416 29.7225 38.5946 29.4539 38.6099C29.8116 39.2052 30.5693 39.5174 31.1021 39.8939C31.9036 40.4693 32.4424 41.0493 33.3707 41.0294C33.7269 41.0248 34.0257 41.0936 34.2355 41.1931C34.2793 41.1839 34.3231 41.1686 34.3729 41.1533C34.7246 41.0294 35.0777 40.8855 35.4249 40.7417C35.283 40.656 35.1321 40.5657 34.9706 40.4723ZM34.6521 45.1719C34.4363 44.9393 34.065 44.8689 33.7722 44.8291C32.8575 44.6899 32.1103 45.0969 32.2326 46.0932C32.2371 46.1728 32.2175 46.2263 32.1843 46.2722C32.2386 46.4957 32.3503 46.713 32.5118 46.8874C33.2016 47.6021 34.2325 47.1644 34.634 46.4069C34.8181 46.0641 34.9464 45.4994 34.6521 45.1719ZM32.0711 34.0067C31.9685 34.0465 31.8356 34.1062 31.6953 34.1552C31.6953 34.1552 31.6953 34.1598 31.6907 34.1598C31.6907 34.1598 31.6907 34.1598 31.6862 34.1598C31.6379 34.1797 31.5836 34.1888 31.5353 34.2041C30.2493 34.625 30.284 35.7069 30.0244 36.2073C29.7014 36.8164 29.1445 37.476 29.2909 38.1952V38.1998C29.4916 38.0605 29.7799 38.0269 29.9852 37.9427C30.3278 37.8096 30.6599 37.6657 30.9874 37.5157C30.9632 37.1791 31.1247 36.8562 31.2998 36.4889C31.49 36.1124 31.7889 35.28 32.1752 34.5102C32.2386 34.3862 32.2975 34.2669 32.3654 34.149C32.4288 34.0343 32.4967 33.9256 32.5662 33.8216C32.3986 33.8889 32.2371 33.9532 32.0711 34.0067ZM28.0607 46.4804C27.9098 45.4795 27.9536 44.6761 27.2728 44.0257C27.0132 43.7686 26.8578 43.51 26.7883 43.2973C26.74 43.2728 26.7008 43.2483 26.657 43.2284C26.3099 43.0647 25.9582 42.9162 25.6005 42.7678C25.6397 42.9315 25.6744 43.1045 25.7182 43.2835C25.7273 43.3233 25.7469 43.3631 25.7574 43.4121C25.7922 43.5513 25.8314 43.6891 25.8752 43.839C26.2314 45.0097 26.8034 46.4911 26.6087 47.6817C26.5997 47.7459 26.5891 47.8102 26.5695 47.8699C26.897 47.9847 27.2245 48.1224 27.5325 48.2662C27.7483 48.3703 28.0849 48.4744 28.2902 48.6626C28.4818 47.9433 28.1588 47.1506 28.0607 46.4804ZM27.3906 48.7712C27.0389 48.6182 26.6767 48.4835 26.3204 48.3443C26.3204 48.3443 26.3204 48.3443 26.3204 48.3489C26.0759 48.6259 25.7091 48.7559 25.2835 48.8998C24.8488 49.0528 23.9628 49.4752 23.0497 49.7874C22.9032 49.8363 22.7568 49.8868 22.615 49.9205C22.4731 49.9649 22.3312 50.0047 22.1999 50.0292C22.3704 50.1042 22.547 50.1776 22.7131 50.2618C22.8263 50.3169 22.9727 50.3704 23.1146 50.4347C23.1146 50.4347 23.1146 50.4347 23.1191 50.4347C23.1191 50.4347 23.1191 50.4393 23.1236 50.4393C23.1779 50.4592 23.2262 50.4883 23.2745 50.5189C24.5756 51.1738 25.4118 50.2908 26.008 50.098C26.3703 49.9741 26.7763 49.8945 27.1627 49.7614C27.534 49.6175 27.8811 49.4293 28.1015 49.0972C27.8464 49.0544 27.6064 48.8707 27.3906 48.7712ZM25.6171 45.3403C25.5492 44.8444 25.5235 44.4083 25.4405 44.0074C25.4118 43.8635 25.3665 43.7197 25.3182 43.5865C25.2201 43.3432 25.0782 43.1152 24.8579 42.9071C24.2466 42.3072 24.1002 42.5 23.2987 42.7877C22.9515 42.9208 22.5999 43.0509 22.2421 43.184C21.9101 43.3126 21.4995 43.4167 21.1856 43.611C20.8777 43.9033 20.5698 44.191 20.2558 44.4787C20.28 44.6669 20.2951 44.8506 20.3102 45.0388C20.197 46.2937 20.5154 47.5623 20.6181 48.8416C20.6271 48.8615 20.6377 48.8814 20.6422 48.9013C20.6905 49.7338 21.6641 49.5701 22.4957 49.2977C22.6663 49.2487 22.8233 49.189 22.9697 49.1339C23.2036 49.0498 23.4104 48.9656 23.5372 48.9258C24.31 48.6687 25.3318 48.5891 25.7227 47.775C26.1046 47.0007 25.7242 46.0947 25.6171 45.3403ZM32.0711 34.0067C31.9685 34.0465 31.8356 34.1062 31.6953 34.1552C31.6953 34.1552 31.6953 34.1598 31.6907 34.1598C31.6907 34.1598 31.6907 34.1598 31.6862 34.1598C31.6379 34.1797 31.5836 34.1888 31.5353 34.2041C30.2493 34.625 30.284 35.7069 30.0244 36.2073C29.7014 36.8164 29.1445 37.476 29.2909 38.1952V38.1998C29.4916 38.0605 29.7799 38.0269 29.9852 37.9427C30.3278 37.8096 30.6599 37.6657 30.9874 37.5157C30.9632 37.1791 31.1247 36.8562 31.2998 36.4889C31.49 36.1124 31.7889 35.28 32.1752 34.5102C32.2386 34.3862 32.2975 34.2669 32.3654 34.149C32.4288 34.0343 32.4967 33.9256 32.5662 33.8216C32.3986 33.8889 32.2371 33.9532 32.0711 34.0067ZM34.9706 40.4723C34.9313 40.4524 34.8921 40.4325 34.8529 40.4081C34.7261 40.3331 34.5993 40.2642 34.4514 40.1953C33.3707 39.6505 31.9428 39.0445 31.253 38.1386C31.2093 38.0896 31.1791 38.0391 31.1504 37.9947C30.847 38.134 30.5391 38.258 30.2312 38.3666C30.0154 38.4416 29.7225 38.5946 29.4539 38.6099C29.8116 39.2052 30.5693 39.5174 31.1021 39.8939C31.9036 40.4693 32.4424 41.0493 33.3707 41.0294C33.7269 41.0248 34.0257 41.0936 34.2355 41.1931C34.2793 41.1839 34.3231 41.1686 34.3729 41.1533C34.7246 41.0294 35.0777 40.8855 35.4249 40.7417C35.283 40.656 35.1321 40.5657 34.9706 40.4723ZM37.7372 36.0206C37.5908 35.912 37.4384 35.8018 37.2965 35.6977C36.4603 34.8453 35.36 34.2608 34.397 33.5461C34.3774 33.5461 34.3623 33.5369 34.3427 33.5216C33.7359 33.061 33.2182 33.7695 32.8665 34.4582C32.7881 34.5974 32.7292 34.7306 32.6703 34.8591C32.5722 35.0672 32.4937 35.2402 32.4409 35.3503C32.1028 36.0099 31.487 36.7185 31.7813 37.4913C32.0605 38.2442 32.9496 38.587 33.5518 39.0185C33.9533 39.2955 34.2853 39.574 34.6325 39.7867C34.7593 39.8663 34.8861 39.9306 35.0234 39.9857C35.2634 40.0852 35.5275 40.1448 35.8309 40.1387C36.6913 40.1234 36.643 39.8954 36.966 39.1517C37.1078 38.8288 37.2452 38.5028 37.3765 38.1753C37.5078 37.8723 37.704 37.5265 37.7674 37.1944C37.7569 36.798 37.7478 36.4063 37.7372 36.0206ZM37.7372 36.0206C37.5908 35.912 37.4384 35.8018 37.2965 35.6977C36.4603 34.8453 35.36 34.2608 34.397 33.5461C34.3774 33.5461 34.3623 33.5369 34.3427 33.5216C33.7359 33.061 33.2182 33.7695 32.8665 34.4582C32.7881 34.5974 32.7292 34.7306 32.6703 34.8591C32.5722 35.0672 32.4937 35.2402 32.4409 35.3503C32.1028 36.0099 31.487 36.7185 31.7813 37.4913C32.0605 38.2442 32.9496 38.587 33.5518 39.0185C33.9533 39.2955 34.2853 39.574 34.6325 39.7867C34.7593 39.8663 34.8861 39.9306 35.0234 39.9857C35.2634 40.0852 35.5275 40.1448 35.8309 40.1387C36.6913 40.1234 36.643 39.8954 36.966 39.1517C37.1078 38.8288 37.2452 38.5028 37.3765 38.1753C37.5078 37.8723 37.704 37.5265 37.7674 37.1944C37.7569 36.798 37.7478 36.4063 37.7372 36.0206ZM34.9706 40.4723C34.9313 40.4524 34.8921 40.4325 34.8529 40.4081C34.7261 40.3331 34.5993 40.2642 34.4514 40.1953C33.3707 39.6505 31.9428 39.0445 31.253 38.1386C31.2093 38.0896 31.1791 38.0391 31.1504 37.9947C30.847 38.134 30.5391 38.258 30.2312 38.3666C30.0154 38.4416 29.7225 38.5946 29.4539 38.6099C29.8116 39.2052 30.5693 39.5174 31.1021 39.8939C31.9036 40.4693 32.4424 41.0493 33.3707 41.0294C33.7269 41.0248 34.0257 41.0936 34.2355 41.1931C34.2793 41.1839 34.3231 41.1686 34.3729 41.1533C34.7246 41.0294 35.0777 40.8855 35.4249 40.7417C35.283 40.656 35.1321 40.5657 34.9706 40.4723ZM32.0711 34.0067C31.9685 34.0465 31.8356 34.1062 31.6953 34.1552C31.6953 34.1552 31.6953 34.1598 31.6907 34.1598C31.6907 34.1598 31.6907 34.1598 31.6862 34.1598C31.6379 34.1797 31.5836 34.1888 31.5353 34.2041C30.2493 34.625 30.284 35.7069 30.0244 36.2073C29.7014 36.8164 29.1445 37.476 29.2909 38.1952V38.1998C29.4916 38.0605 29.7799 38.0269 29.9852 37.9427C30.3278 37.8096 30.6599 37.6657 30.9874 37.5157C30.9632 37.1791 31.1247 36.8562 31.2998 36.4889C31.49 36.1124 31.7889 35.28 32.1752 34.5102C32.2386 34.3862 32.2975 34.2669 32.3654 34.149C32.4288 34.0343 32.4967 33.9256 32.5662 33.8216C32.3986 33.8889 32.2371 33.9532 32.0711 34.0067Z" fill="#FF7373"/>
<path d="M40.5688 29.7831C40.2699 29.6591 39.8202 29.6239 39.3266 29.6239C39.1364 29.6239 38.9402 29.6331 38.744 29.6438C38.0934 29.6729 37.4429 29.7433 37.0037 29.7586H36.9252C36.6611 29.7586 36.3969 29.7678 36.1434 29.7831C34.2808 29.878 32.5586 30.2498 30.7308 30.6753C29.1414 31.0471 27.4932 31.3899 25.8465 30.9476C24.2873 30.5268 23.1961 29.451 21.7924 28.796C19.1268 27.5473 16.8583 28.2053 14.2576 28.9491C14.1595 28.9735 15.7836 35.2693 16.087 38.6758C16.4885 43.1474 17.3775 47.7536 18.0582 52.4823C18.3374 54.4105 18.1895 57.1865 19.3245 58.9265C21.1041 61.6535 25.6865 60.7552 28.4592 60.7552C31.4523 60.7598 36.5026 61.9305 37.8036 58.3358C38.5659 56.2239 38.0391 53.5275 38.19 51.3697C38.4829 47.1109 39.0021 42.9714 39.882 39.0599C40.356 36.9434 40.9778 34.8806 41.574 32.8682C41.9091 31.7067 42.6321 30.637 40.5688 29.7831ZM19.969 35.8125C19.9841 35.5845 20.0626 35.3519 20.2181 35.1086C20.5215 34.6327 21.098 34.2761 21.6852 34.2899C22.9168 34.3098 23.6564 35.9258 23.5477 36.9618C23.4104 38.2304 21.8663 38.5625 20.8822 37.9886C20.1743 37.5663 19.5676 36.5609 19.969 35.8125ZM27.1521 58.1169C26.2616 57.8782 25.0345 56.784 25.6065 55.7465C25.6065 55.7419 25.611 55.7419 25.6156 55.7373C25.6246 55.5139 25.6835 55.2904 25.8163 55.0242C26.0518 54.5727 26.4865 54.2008 26.9846 54.1274C28.1241 53.9545 28.7203 55.2476 28.823 56.2239C28.9271 57.2737 28.3294 58.4337 27.1521 58.1169ZM29.0826 48.8401C28.9558 49.6634 28.432 49.8471 27.7619 50.0797C26.8276 50.3965 23.8058 51.9987 22.9893 51.0071C22.9847 51.0071 22.9847 51.0071 22.9742 51.0025C22.9198 51.0224 22.867 51.0071 22.8323 50.9581C22.8232 50.9535 22.8172 50.929 22.8127 50.9137C22.7251 50.8647 22.6421 50.8142 22.5531 50.7806C22.0595 50.5572 21.5463 50.3796 21.0467 50.1654C21.012 50.1501 20.9833 50.1256 20.9637 50.0904C20.7735 50.046 20.6256 49.9573 20.5185 49.8226C20.44 49.8425 20.3615 49.8134 20.3479 49.7139C20.04 48.1821 19.6385 46.0993 19.7955 44.4833C19.8589 43.8544 20.0551 43.6906 20.612 43.3723C21.3501 42.9561 22.221 42.7235 22.9878 42.4403C23.5115 42.2567 24.2888 41.8206 24.802 41.8894C24.9529 41.9093 25.0752 41.9537 25.1733 42.0226C25.7303 42.1817 26.2736 42.4296 26.7914 42.6913C27.0706 42.8245 27.534 42.979 27.7453 43.2713C27.9702 43.5284 28.029 43.9508 28.1407 44.4068C28.4577 45.6372 29.2984 47.4368 29.0826 48.8401ZM35.2981 46.6885C34.5797 47.7352 33.0778 47.9923 32.056 47.1445C31.6062 46.7681 31.4794 46.2172 31.6017 45.7366C31.5428 44.6608 32.9903 43.9722 33.9397 44.0456C35.3072 44.1451 36.0951 45.5392 35.2981 46.6885ZM38.3199 36.9664C38.1387 37.73 37.7372 38.4692 37.4293 39.1777C37.2241 39.6582 37.0233 40.4968 36.6218 40.7937C36.5041 40.8886 36.3864 40.9376 36.2701 40.9621C35.766 41.2345 35.2196 41.4426 34.6717 41.617C34.3834 41.7165 33.9533 41.9292 33.5956 41.8695C33.2484 41.845 32.9103 41.5971 32.4998 41.3584C31.4145 40.7294 29.5957 40.0791 28.7988 39.014C28.3339 38.3988 28.5739 37.9381 28.8622 37.3536C29.2773 36.5501 30.207 33.6548 31.3949 33.7344H31.3994C31.4236 33.69 31.4674 33.6594 31.5217 33.6701C31.5368 33.6701 31.5564 33.6793 31.57 33.6854C31.6575 33.6609 31.7511 33.6303 31.8236 33.6012C32.293 33.4222 32.7473 33.214 33.2122 33.0258C33.2469 33.0105 33.2801 33.0105 33.3148 33.0166C33.4718 32.9279 33.6272 32.8881 33.7887 32.9034C33.8174 32.8391 33.8914 32.8085 33.9699 32.859C35.2211 33.5874 36.9629 34.6097 38.0331 35.7192C38.4663 36.1584 38.4512 36.3971 38.3199 36.9664Z" fill="#FF7373"/>
<path d="M47.7866 0.301473C47.7186 0.276988 47.6552 0.266276 47.5903 0.252503C47.4968 0.232609 47.4047 0.212714 47.3171 0.197411C47.0138 0.14232 46.7209 0.0979399 46.4523 0.0688639C46.3149 0.0489697 46.1791 0.0336664 46.0372 0.0244845C45.8712 0.00918131 45.7097 0 45.5436 0C45.4304 0.133138 45.3338 0.283109 45.2403 0.440731C44.9022 1.04062 44.6924 1.79966 44.5112 2.53727C44.4765 2.68571 44.4433 2.82497 44.4086 2.96423C44.315 3.3514 44.223 3.72786 44.1248 4.05535C44.066 4.24357 44.0071 4.43639 43.9437 4.62615C43.9045 4.7394 43.8698 4.85876 43.8366 4.97354C43.4607 6.15341 43.0879 7.34247 42.7166 8.53306C42.6623 8.70598 42.6034 8.88044 42.5506 9.05337C42.4434 9.39004 42.3347 9.73283 42.2276 10.0695C42.1642 10.273 42.1053 10.4704 42.0419 10.674C41.9936 10.8331 41.9438 10.9907 41.8955 11.1499C41.5091 12.3986 41.1273 13.6443 40.7514 14.8931C40.688 15.0721 40.6337 15.2603 40.5809 15.4486C40.4148 15.9735 40.2533 16.5045 40.0964 17.0294C40.042 17.2084 39.9832 17.3905 39.9303 17.5696C39.6028 18.6362 39.2843 19.6921 38.9628 20.7572C38.9085 20.9302 38.8602 21.1 38.8059 21.273C38.7621 21.4015 38.7228 21.5408 38.6836 21.6693C38.5568 22.0764 38.43 22.4819 38.3017 22.889C38.2474 23.042 38.1991 23.2012 38.1508 23.3557C37.701 24.7391 37.2316 26.1317 36.7969 27.5304C36.7426 27.6942 36.6943 27.8533 36.6505 28.0155C36.4799 28.5603 36.3275 29.1005 36.1856 29.6469C36.1705 29.6912 36.1615 29.7356 36.1464 29.7861C36.3999 29.7708 36.6641 29.7616 36.9282 29.7616H37.0067C37.6376 29.5627 38.2731 29.3546 38.8889 29.1327C38.8406 29.3056 38.7953 29.4801 38.747 29.6484C38.9432 29.6392 39.1379 29.6285 39.3296 29.6285C39.393 29.4296 39.4519 29.2367 39.5153 29.0378C39.5892 28.8098 40.9431 23.5348 41.325 22.2799C41.3989 22.0519 41.4714 21.8193 41.5348 21.5959C41.7114 21.0404 41.8774 20.4803 42.048 19.9156C42.1114 19.712 42.1748 19.5039 42.2381 19.2958C42.5264 18.3546 42.8147 17.412 43.0985 16.4647C43.1664 16.2413 43.2358 16.0133 43.3038 15.7898C43.4743 15.2052 43.6509 14.6253 43.8275 14.0391C43.8864 13.8356 43.9498 13.6321 44.0086 13.4301C44.3467 12.3191 44.6743 11.2096 45.0018 10.0986C45.0652 9.87056 45.1331 9.64254 45.198 9.41452C45.364 8.85442 45.5301 8.29433 45.687 7.73882C45.7504 7.5307 45.8093 7.32258 45.8682 7.11904C46.1715 6.08302 46.4644 5.05158 46.7481 4.03545C46.8115 3.81661 46.8749 3.59472 46.9338 3.37588C47.0802 2.85098 47.2266 2.32455 47.3745 1.80884C47.4288 1.6053 47.4877 1.40177 47.5405 1.19977C47.5752 1.07581 47.6084 0.956448 47.6432 0.832493C47.6869 0.659567 47.7367 0.485111 47.785 0.312185C47.7941 0.312185 47.8047 0.312184 47.8137 0.303002H47.7866V0.301473ZM39.0775 28.4502C38.4074 28.7027 37.7478 28.9751 37.0867 29.2582C37.2769 28.7226 37.458 28.1869 37.6346 27.6422C38.27 27.3942 38.9009 27.131 39.5213 26.8586C39.3764 27.3896 39.224 27.9237 39.0775 28.4502ZM39.6934 26.2343C39.0624 26.522 38.4421 26.7989 37.8157 27.0821C38.2308 25.7629 38.6172 24.4193 38.9885 23.0864C39.5802 22.8936 40.1673 22.6946 40.7484 22.4819C40.3937 23.7398 40.0405 24.9947 39.6934 26.2343ZM40.9401 21.8116C40.3333 22.0351 39.7326 22.283 39.1409 22.5355C39.2828 22.0198 39.4247 21.4949 39.5666 20.9746C40.1779 20.7358 40.7892 20.4787 41.3959 20.2109C41.2435 20.7465 41.0925 21.276 40.9401 21.8116ZM41.577 19.5866C40.9612 19.8635 40.3348 20.1421 39.719 20.419C40.0028 19.3922 40.2911 18.3669 40.5794 17.3599C41.1861 17.1564 41.7914 16.9483 42.3936 16.7249C42.1189 17.6813 41.8457 18.6347 41.577 19.5866ZM42.5928 16.0408C41.977 16.2596 41.3657 16.5075 40.759 16.7601C40.8027 16.6009 40.8525 16.4479 40.8963 16.2994C41.0141 15.9276 41.1257 15.5511 41.2389 15.1792C41.8593 14.9313 42.4706 14.6681 43.0728 14.3911C42.9113 14.9359 42.7543 15.4914 42.5928 16.0408ZM43.2539 13.7652C42.6427 14.0422 42.0359 14.3161 41.4246 14.5885C41.7914 13.3735 42.1627 12.1645 42.5294 10.9494C43.1015 10.7658 43.6781 10.5776 44.2456 10.3694C43.9135 11.4958 43.586 12.6297 43.2539 13.7652ZM44.4463 9.68998C43.8592 9.91341 43.2736 10.1506 42.691 10.3939C42.8525 9.86903 43.0094 9.33801 43.1649 8.81311C43.7566 8.5805 44.3482 8.33718 44.9293 8.08467C44.7693 8.61416 44.6033 9.14978 44.4463 9.68998ZM45.112 7.45418C44.5203 7.72199 43.9241 7.98979 43.3324 8.25301C43.6751 7.10833 44.0177 5.95753 44.3588 4.80673C44.9308 4.62309 45.5029 4.44558 46.0795 4.25582C45.7565 5.31327 45.435 6.37378 45.112 7.45418ZM46.2606 3.64675C45.6644 3.89007 45.0727 4.14257 44.4811 4.39048C44.4961 4.3308 44.5203 4.27112 44.5354 4.21756C44.6818 3.72633 44.8237 3.24122 44.9701 2.75457C45.5663 2.53574 46.1534 2.30772 46.7451 2.07052C46.5836 2.59083 46.4221 3.11114 46.2606 3.64675ZM46.9262 1.47064C46.3255 1.73844 45.7233 2.01084 45.1165 2.27405C45.1557 2.14092 45.195 2.01696 45.2342 1.893C45.278 1.73997 45.4833 1.0498 45.7912 0.449913C45.9965 0.454504 46.2017 0.469807 46.407 0.494292C46.6711 0.52949 46.9247 0.593764 47.1753 0.673341C47.0922 0.939616 47.0092 1.20742 46.9262 1.47064Z" fill="#0B2E73"/>
<path d="M46.0644 18.0317C44.8795 18.122 43.6916 18.2093 42.5023 18.2934C33.0084 18.9652 23.4224 18.9668 13.927 18.2995C16.1805 16.3668 17.5722 13.3321 19.8241 11.4101C20.0581 11.2111 19.9781 10.9311 19.7939 10.7673C19.8407 10.6525 19.8332 10.5163 19.726 10.423C15.121 6.41356 7.02776 7.9148 2.96003 11.9334C-1.77182 16.6085 -0.494897 25.1615 4.41354 29.2551C4.52524 29.3469 4.67919 29.249 4.64448 29.1158C7.09266 27.3682 8.5024 24.2907 10.6638 22.1896C12.1868 28.9521 13.4607 36.2196 14.4855 44.038C15.0394 48.28 15.4968 52.6843 16.013 57.2492C16.3405 60.1048 17.3186 61.906 20.1245 62.5426C22.624 63.1119 25.3786 63.4654 28.0909 63.5281V63.5342C28.115 63.5342 28.1392 63.5312 28.1633 63.5312C28.1875 63.5312 28.2116 63.5342 28.2343 63.5342V63.5281C30.9481 63.4654 33.7027 63.1119 36.2022 62.5426C39.0096 61.9075 39.9877 60.1048 40.3137 57.2492C40.8299 52.6843 41.2857 48.28 41.8412 44.038C43.0532 34.7872 44.6093 26.2985 46.5217 18.5184C46.576 18.295 46.3391 18.0118 46.0644 18.0317ZM13.3746 18.2613C13.0984 18.2414 12.8237 18.22 12.5475 18.2001C12.6894 15.8067 12.5988 13.375 12.0479 11.0382C12.1837 11.0321 12.3226 11.0214 12.4554 11.0198C14.49 10.9862 16.3435 12.0421 18.2755 12.0497C16.6575 14.1019 14.4689 15.9061 13.3746 18.2613ZM10.2593 18.0317C10.1733 18.0256 10.0918 18.0516 10.0208 18.093C9.27972 16.0882 7.43076 14.1202 5.76895 12.8026C5.83234 12.7644 5.89121 12.7231 5.95762 12.6863C7.48358 11.8156 9.43368 11.283 11.2615 11.0963C11.4879 13.4806 11.9588 15.848 12.4313 18.1924C11.7068 18.1389 10.9823 18.0868 10.2593 18.0317ZM5.13502 13.2296C5.94404 14.0636 6.81645 14.8211 7.59528 15.6873C8.33637 16.5091 9.09256 17.4456 9.93781 18.1572C9.83366 18.2567 9.77328 18.396 9.80347 18.5199C9.86083 18.7541 9.91516 18.9943 9.97252 19.2285C8.79522 18.9469 7.47151 19.1825 6.27761 19.2866C4.99767 19.3983 3.67547 19.5269 2.43024 19.8452C2.1812 17.3416 2.90418 14.8946 5.13502 13.2296ZM1.04012 21.2163C0.499771 17.9277 1.36765 14.6069 3.81282 12.2915C5.8731 10.3404 8.80428 9.32117 11.5815 9.18191C14.3542 9.04418 16.5896 9.98838 19.1102 10.8698C18.9155 11.1851 18.6996 11.4927 18.4717 11.7942C17.0439 9.9991 13.7112 10.071 11.6585 10.2149C9.00804 10.4 5.87159 11.0627 3.99545 13.1225C0.283932 17.1947 1.20464 24.0995 5.41576 27.3361C5.07917 27.8426 4.78636 28.3721 4.55693 28.9322C3.16983 26.3949 1.52463 24.1653 1.04012 21.2163ZM10.4374 21.2026C9.16954 23.2578 7.10926 24.9549 5.66329 26.9688C4.16752 25.2977 3.00078 23.0604 2.56609 20.794C2.58269 20.7924 2.59627 20.7986 2.61288 20.7955C3.87017 20.592 5.11691 20.2507 6.37269 20.0135C7.56056 19.7885 8.86918 19.7794 9.99667 19.3371C10.1461 19.9554 10.294 20.5736 10.4389 21.1995C10.4389 21.201 10.4389 21.201 10.4374 21.2026ZM40.9642 39.8878C40.2729 43.9538 39.6964 48.1867 39.2073 52.5986C39.0021 54.4411 39.0021 56.4427 38.5658 58.3021C37.8444 61.4117 34.0861 61.3642 31.6122 61.5831C30.4772 61.6871 29.3195 61.7728 28.1618 61.8157C27.0026 61.7728 25.8465 61.6871 24.7114 61.5831C22.2376 61.3642 18.4793 61.4117 17.7578 58.3021C17.3231 56.4427 17.3216 54.4411 17.1163 52.5986C16.6273 48.1867 16.0507 43.9523 15.3594 39.8878C14.087 32.3494 12.5294 25.3558 10.7951 18.8459C13.3097 19.0219 16.9518 19.2943 20.2528 19.5452C25.5129 19.9446 30.8108 19.9446 36.0709 19.5452C39.3734 19.2943 43.0139 19.0234 45.5285 18.8459C43.7943 25.3558 42.2366 32.3494 40.9642 39.8878Z" fill="#0B2E73"/>
<path d="M14.0493 13.5831C13.8878 13.7821 13.8818 13.9871 13.8425 14.235C13.829 14.3299 13.7927 14.4477 13.8018 14.5442C13.8124 14.6543 13.8803 14.7354 13.918 14.838C13.9271 14.864 13.9618 14.8869 13.989 14.8671C14.0599 14.812 14.1535 14.7814 14.2169 14.7186C14.2863 14.6497 14.315 14.5396 14.3527 14.4523C14.4418 14.2442 14.5836 14.0269 14.555 13.7943C14.5278 13.5693 14.232 13.3566 14.0493 13.5831Z" fill="#0B2E73"/>
<path d="M10.3137 13.5785C10.3273 13.5862 10.3454 13.5816 10.3529 13.5678C10.4525 13.3842 10.4329 13.2862 10.4118 13.0781C10.3906 12.8715 10.3952 12.6634 10.2895 12.4813C10.1673 12.2716 9.84878 12.365 9.84426 12.6037C9.83973 12.8134 9.94689 12.9939 10.0269 13.1837C10.1054 13.3658 10.1446 13.4714 10.3137 13.5785Z" fill="#0B2E73"/>
<path d="M10.4268 15.5725C10.2865 15.2802 10.1672 14.9681 9.97251 14.711C9.76724 14.4416 9.27066 14.7354 9.39744 15.0507C9.47593 15.2435 10.2563 16.6591 10.534 16.2841C10.7045 16.0546 10.5325 15.7914 10.4268 15.5725Z" fill="#0B2E73"/>
<path d="M6.15382 15.9199C5.83233 15.7271 5.4565 15.4149 5.08368 15.3537C4.79238 15.3062 4.64295 15.6536 4.88445 15.8311C5.19085 16.0576 5.67384 16.1066 6.03609 16.203C6.20363 16.2474 6.30476 16.0102 6.15382 15.9199Z" fill="#0B2E73"/>
<path d="M6.78777 17.9797C6.81192 17.9644 6.82098 17.9246 6.79683 17.9032C6.65193 17.7762 6.55986 17.7333 6.38326 17.6721C6.17648 17.5038 5.85498 17.4456 5.61047 17.5099C5.34029 17.5803 5.23766 18.0394 5.52594 18.1649C5.7448 18.2598 6.03762 18.2888 6.27157 18.2062C6.37873 18.1679 6.41647 18.1297 6.52816 18.1098C6.65495 18.0884 6.67759 18.0501 6.78777 17.9797Z" fill="#0B2E73"/>
<path d="M6.55535 24.1392C6.3214 24.1852 6.16745 24.381 5.99538 24.5371C5.79463 24.7192 5.5637 24.886 5.42786 25.1248C5.3222 25.3115 5.54861 25.59 5.74181 25.4431C5.9667 25.2717 6.10103 25.0345 6.25801 24.8019C6.39385 24.6029 6.57497 24.4178 6.59007 24.1668C6.59309 24.1469 6.57196 24.1362 6.55535 24.1392Z" fill="#0B2E73"/>
<path d="M7.94247 20.8751C7.73116 20.8996 7.53494 20.9914 7.34023 21.074C7.14401 21.1566 6.90704 21.2286 6.76818 21.3954C6.6263 21.5683 6.70479 21.8881 6.9644 21.8744C7.1908 21.8637 7.37042 21.7397 7.56361 21.6265C7.74625 21.5193 7.95454 21.4137 8.10095 21.2576C8.21868 21.1322 8.14472 20.8506 7.94247 20.8751Z" fill="#0B2E73"/>
<path d="M48.1111 39.2909C47.4424 39.3491 47.0138 39.3537 46.8236 39.3032C46.6334 39.2527 46.5278 39.1654 46.5051 39.04C46.4825 38.9145 46.5142 38.5747 46.6002 38.0223C46.7315 37.1684 47.1541 34.8989 47.8681 31.2124C48.6333 27.1922 48.9956 25.0559 48.9518 24.8049C48.8763 24.4361 48.7556 24.2525 48.5911 24.2525C47.7745 24.202 47.3519 24.052 47.3247 23.7995C47.3066 23.6985 47.4122 23.6067 47.6387 23.5225C47.8817 23.4384 48.0764 23.3557 48.2213 23.2716C48.3662 23.1874 49.0092 23.0787 50.1517 22.9456C50.9064 22.8614 51.409 22.8324 51.6611 22.8584C51.9132 22.8829 52.1984 22.9793 52.5199 23.1476C53.0557 23.4154 53.495 23.8056 53.8376 24.3152C54.1802 24.8264 54.3176 25.2992 54.2497 25.7354C54.2104 25.9863 53.99 26.4561 53.5886 27.1417C53.1856 27.8288 52.9108 28.2221 52.7644 28.3231C52.4369 28.5236 52.5003 28.6996 52.9561 28.8511C53.3154 28.9858 53.7531 29.3745 54.2723 30.0187C54.7915 30.6645 55.1402 31.2629 55.3198 31.8153C55.7469 33.0044 55.6458 34.1445 55.0179 35.2325C54.6889 35.7681 54.2753 36.3129 53.7772 36.8654C53.2806 37.4178 52.9108 37.7285 52.6694 37.7958C52.4475 37.8463 52.2331 37.9458 52.0294 38.0973C51.8981 38.1983 51.557 38.3574 51.003 38.5747C50.4506 38.792 49.9842 38.9512 49.6069 39.0522C49.2793 39.1532 48.7797 39.2328 48.1111 39.2909ZM50.0114 37.8723C50.6393 37.756 51.2566 37.5203 51.8634 37.1684C52.4701 36.8164 52.9214 36.4231 53.2203 35.987C53.5584 35.5019 53.7953 34.8775 53.9282 34.1154C54.061 33.3533 54.0429 32.7213 53.8738 32.2178C53.7033 31.7158 53.5146 31.2751 53.3093 30.8987C53.1025 30.5222 52.9516 30.334 52.852 30.334C52.7358 30.334 52.535 30.2008 52.2452 29.9315C52.0566 29.7647 51.883 29.6591 51.7245 29.6178C51.566 29.5765 51.3124 29.5642 50.9638 29.5795L50.1683 29.6055L49.5978 32.9983C49.2718 34.9081 49.0001 36.2992 48.7843 37.1699C48.6439 37.6565 48.6258 37.9289 48.7329 37.9871C48.8386 38.0437 49.2657 38.0055 50.0114 37.8723ZM51.2672 28.5756C51.6113 28.3752 51.9298 28.0737 52.2226 27.6712C52.8158 26.9168 53.0678 26.222 52.9758 25.5854C52.8837 24.9488 52.4867 24.5555 51.7849 24.404C51.3909 24.2877 51.1298 24.2617 51.0045 24.329C50.9502 24.3627 50.8234 25.0207 50.6272 26.3016C50.431 27.5825 50.3329 28.3828 50.3329 28.7011C50.3419 28.7516 50.4642 28.7608 50.6996 28.7256C50.9351 28.6919 51.1238 28.6414 51.2672 28.5756Z" fill="#00163A"/>
<path d="M56.6434 36.2135C56.5091 36.013 56.4518 35.7743 56.4684 35.4973C56.4865 35.2203 56.6087 34.5041 56.8351 33.3487L57.3332 30.9109L56.9363 30.7609C56.6767 30.6263 56.568 30.4182 56.6118 30.1335C56.6374 29.9667 56.725 29.8825 56.8729 29.8825C57.0872 29.8825 57.2095 29.8917 57.2396 29.907C57.3362 29.9239 57.4359 29.7525 57.5415 29.3913C57.6457 29.0317 57.7574 28.5251 57.8736 27.8717C57.9928 27.2014 58.1936 26.5939 58.4743 26.0506C58.755 25.5058 59.0116 25.2334 59.2426 25.2334C59.4569 25.2334 59.5867 25.1921 59.6335 25.1079C59.7905 24.9411 60.6146 24.9488 62.1028 25.1324C62.1843 25.1324 62.4394 25.1416 62.865 25.1569C63.2907 25.1737 63.6182 25.1906 63.8461 25.2074C64.5118 25.2747 64.9555 25.3956 65.1759 25.5716C65.3962 25.7476 65.4174 25.9863 65.2393 26.2878C65.1095 26.4883 64.9917 26.6107 64.8861 26.652C64.7804 26.6949 64.5178 26.6903 64.0967 26.6398C63.7224 26.6061 63.3556 26.5235 62.9979 26.3888C62.5752 26.2373 62.0681 26.1623 61.4749 26.1623L60.278 26.0613L60.1769 27.0407C60.1588 27.1586 60.0878 27.431 59.9656 27.8579C59.8418 28.2849 59.7573 28.5986 59.709 28.8006L59.469 29.881L60.4033 29.7555C62.0802 29.5719 62.9209 29.63 62.9239 29.9315C62.9118 30.1167 62.8152 30.2085 62.6341 30.2085C62.4198 30.2085 62.2643 30.2498 62.1692 30.334C62.0545 30.435 61.6636 30.5436 60.9934 30.6599C60.3233 30.7778 59.8946 30.8114 59.7044 30.7609C59.5475 30.7104 59.4252 30.8023 59.3407 31.0379C59.2365 31.2889 59.0041 32.2025 58.6479 33.7772C58.5573 34.146 58.5015 34.4597 58.4788 34.7199C58.4547 34.98 58.4532 35.1759 58.4743 35.3106C58.4939 35.4453 58.5302 35.5111 58.58 35.5111C59.0086 35.5111 59.7361 35.3595 60.764 35.0581C61.7904 34.7566 62.4907 34.5225 62.8635 34.3541C63.2001 34.2026 63.4235 34.12 63.5322 34.1032C63.6424 34.0863 63.8054 34.12 64.0242 34.2042C64.5646 34.4383 64.4846 34.749 63.7827 35.1346C63.6575 35.2019 63.5231 35.2693 63.3812 35.3351C61.976 36.0053 60.6372 36.3481 59.3648 36.365C58.6705 36.3818 58.0426 36.44 57.4827 36.541C57.2276 36.5915 57.054 36.596 56.9619 36.5532C56.8699 36.5119 56.7627 36.3986 56.6434 36.2135Z" fill="#00163A"/>
<path d="M66.7532 39.2787C66.6867 39.2787 66.5464 39.2542 66.332 39.2037C66.1177 39.1532 65.9622 39.1195 65.8656 39.1027C65.5592 39.0522 65.1623 38.7936 64.6748 38.3238C64.1857 37.8555 63.9005 37.4607 63.8174 37.1424C63.7631 36.9587 63.751 36.8195 63.7827 36.7276C63.8129 36.6358 63.8959 36.5302 64.0287 36.4139C64.2552 36.2303 64.5012 36.1844 64.7668 36.2762C65.0325 36.368 65.2393 36.5823 65.3857 36.9174C65.5789 37.2694 65.8249 37.6045 66.1222 37.9228C66.4664 38.258 66.886 38.4248 67.381 38.4248C67.9093 38.4248 68.2052 38.3743 68.2701 38.2733C68.338 38.157 68.4783 38.0973 68.6927 38.0973C68.8904 38.0973 68.9976 38.0468 69.0127 37.9473C69.0308 37.831 69.1047 37.7713 69.2376 37.7713C69.3523 37.7713 69.5168 37.6673 69.7311 37.4576C69.9439 37.248 70.0617 37.0766 70.0828 36.9419C70.1054 36.7904 70.2594 36.5394 70.5447 36.1874L70.768 35.534L70.6835 34.4781C70.6367 34.2439 70.5899 34.068 70.5416 33.9501C70.4933 33.8323 70.4466 33.7405 70.3983 33.6731C70.35 33.6058 70.2171 33.4589 69.9953 33.2339C69.7749 33.0074 69.5651 32.7855 69.3674 32.5682C68.4934 31.5965 67.8867 30.9935 67.5425 30.7594C67.2301 30.5421 66.9388 30.2314 66.6716 29.829C66.6158 29.7616 66.5192 29.5856 66.3818 29.301C66.2445 29.0164 66.1403 28.8327 66.0709 28.7486C65.7811 28.3798 65.7751 27.6177 66.0513 26.4623C66.2671 25.5915 66.6581 24.9044 67.221 24.4025C67.784 23.9005 68.6157 23.5562 69.716 23.3726C71.0684 23.1552 72.0208 23.2394 72.5717 23.6235C72.7181 23.7414 72.7846 23.9342 72.7664 24.202C72.7498 24.4698 72.6668 24.6626 72.5174 24.7804C72.3861 24.8814 72.2729 24.9274 72.1748 24.9182C72.0767 24.9105 71.8805 24.8478 71.5846 24.7299C71.0895 24.5126 70.4828 24.4453 69.7613 24.5295C68.6851 24.6641 68.0814 25.1569 67.9501 26.0124C67.8731 26.5143 67.8972 26.9428 68.0255 27.2932C68.1523 27.6452 68.427 28.0048 68.8496 28.3736C69.3009 28.7593 69.6692 29.1021 69.953 29.4035C70.1945 29.6545 70.4073 29.8305 70.5884 29.9315C70.9809 30.1656 71.4201 30.7196 71.9046 31.5904C72.3891 32.4611 72.6034 33.0809 72.5461 33.4497C72.5129 33.667 72.5461 33.8767 72.6472 34.0771C72.7317 34.2776 72.5627 34.8392 72.1416 35.7605C71.7265 36.6312 71.242 37.3275 70.6835 37.8463C70.0903 38.3819 69.4353 38.7798 68.7198 39.04C68.0029 39.3001 67.3478 39.3797 66.7532 39.2787Z" fill="#00163A"/>
<path d="M75.9769 39.2542C75.6735 39.1869 75.4954 39.1119 75.4426 39.0277C75.3898 38.9436 75.3837 38.7676 75.4245 38.4998C75.595 37.3949 75.8275 35.7697 76.1233 33.6257C76.4191 31.4817 76.6757 29.5673 76.8946 27.884C77.1119 26.2006 77.2146 25.3421 77.204 25.3084C77.1678 25.2243 76.8734 25.2074 76.321 25.2579C76.0191 25.2916 75.3671 25.3497 74.3649 25.4339L73.257 25.5594L73.4653 25.007C73.6042 24.6381 73.7913 24.3627 74.0253 24.1775C74.2592 23.9939 74.4932 23.951 74.7241 24.052C74.9566 24.153 75.3309 24.127 75.8486 23.977C76.3829 23.8271 76.7542 23.7674 76.964 23.8011C77.2885 23.8347 77.6145 23.8102 77.9406 23.7261C78.9684 23.4751 80.1276 23.3068 81.4181 23.2241C82.7086 23.14 83.4739 23.1828 83.7109 23.3496C83.8316 23.417 83.8784 23.5501 83.8467 23.7521C83.815 23.9526 83.6595 24.0536 83.3803 24.0536C83.1826 24.0536 82.9411 24.1209 82.6573 24.254C82.4083 24.3719 81.7713 24.4882 80.748 24.606L79.1873 24.782L78.9639 26.2389C78.8024 27.2948 78.4447 30.3187 77.8923 35.3091C77.761 36.4813 77.6568 37.2648 77.5813 37.6581C77.5044 38.0514 77.3836 38.408 77.2191 38.7263C76.9821 39.1945 76.8221 39.4302 76.7406 39.4302C76.6425 39.4302 76.3889 39.3705 75.9769 39.2542Z" fill="#00163A"/>
<path d="M47.4636 56.3938L46.2078 56.1933L45.2267 55.0119C44.5595 54.2085 44.1233 53.4954 43.9226 52.8756C43.7777 52.4226 43.7037 52.0431 43.7022 51.7324C43.7007 51.4233 43.7822 50.7316 43.9468 49.6588C44.1218 48.5203 44.3075 47.6281 44.5067 46.9823C44.7044 46.3381 45.0003 45.7045 45.3912 45.0847C45.6538 44.6654 46.0916 44.0961 46.7044 43.3754C47.3172 42.6546 47.7428 42.22 47.9813 42.0685C48.3526 41.8007 48.576 41.6339 48.6514 41.5665C48.6695 41.5497 49.1042 41.3569 49.9525 40.9881C50.4098 40.8044 50.7525 40.6912 50.9819 40.6483C51.2113 40.607 51.5192 40.6101 51.9071 40.6606C53.1086 40.7784 53.661 41.1549 53.5644 41.7915C53.5206 42.0761 53.3802 42.2904 53.1448 42.4327C52.9078 42.575 52.6497 42.6454 52.3705 42.6454C52.1894 42.6454 51.9871 42.5107 51.7637 42.2429C51.6384 42.0914 51.4483 41.9369 51.1917 41.7777C50.9351 41.6186 50.7238 41.5482 50.5562 41.5635C50.1366 41.614 49.6612 41.8313 49.1329 42.2169C48.6031 42.6025 48.1488 43.1213 47.7684 43.7748C47.6386 43.9752 47.4953 44.2936 47.3368 44.7297C47.1798 45.1658 47.0817 45.4 47.0424 45.4336C46.9821 45.501 46.7949 46.3472 46.4795 47.9709C46.167 49.4614 46.0734 50.6964 46.1942 51.6773C46.3149 52.6567 46.6772 53.5489 47.2794 54.3539C47.5934 54.7732 47.8484 55.044 48.0447 55.1711C48.2394 55.2965 48.5186 55.3593 48.8808 55.3593L50.3676 55.1833L52.0611 53.9774C52.2754 53.9774 52.3886 54.1029 52.3992 54.3539C52.4158 54.5712 52.3494 54.6798 52.1999 54.6798C52.0671 54.6798 51.729 54.9476 51.1856 55.4832C50.6468 55.9852 50.1442 56.3035 49.6793 56.4382C49.2688 56.5392 49.0046 56.5881 48.8899 56.5881C48.7767 56.5943 48.2997 56.5269 47.4636 56.3938Z" fill="#00163A"/>
<path d="M55.6956 53.3285C55.3152 53.2275 54.9877 53.0516 54.713 52.8006C54.4383 52.5496 54.1062 52.1395 53.7153 51.5702C52.864 50.3475 53.0134 48.4637 54.1636 45.9172C54.5153 45.1306 55.0013 44.4848 55.6231 43.9829C56.3808 43.3463 56.9936 42.9484 57.463 42.7892C57.9325 42.6301 58.6781 42.5505 59.7014 42.5505C60.5919 42.5505 61.1368 42.5719 61.3361 42.6132C61.5353 42.6546 61.8206 42.8107 62.1919 43.0785C62.5179 43.3126 62.7549 43.5483 62.8998 43.7824C63.0447 44.0166 63.2273 44.445 63.4446 45.0648L63.9669 46.4972L63.4854 48.508C63.2967 49.1951 63.1413 49.6726 63.0175 49.9404C62.8937 50.2082 62.6688 50.5434 62.3443 50.9458C61.5383 51.9008 61.0116 52.3782 60.764 52.3782C60.681 52.3782 60.435 52.5297 60.0275 52.8312C59.6562 53.099 59.4162 53.2076 59.309 53.1571C59.2788 53.1403 59.1203 53.1985 58.8366 53.3331C58.5513 53.4678 58.0683 53.5305 57.3861 53.5214C56.7023 53.5076 56.1393 53.4448 55.6956 53.3285ZM59.1747 52.0966C59.7135 51.913 60.2448 51.5182 60.7655 50.9152C61.2863 50.3123 61.7481 49.567 62.1481 48.6794C62.5451 47.8087 62.6885 46.9869 62.5753 46.2171C62.5028 45.6142 62.3926 45.3127 62.2447 45.3127C62.1119 45.3127 62.0062 45.1964 61.9277 44.9608C61.7708 44.3746 61.3391 43.9645 60.6327 43.7288C60.1995 43.5452 59.5928 43.5773 58.8109 43.8299C58.1724 44.015 57.7408 44.2492 57.5159 44.5338C57.3121 44.7848 57.1144 44.9944 56.9242 45.1628C56.2027 45.8835 55.8118 47.3067 55.7484 49.4339C55.7333 50.1715 55.8541 50.7316 56.1076 51.1172C56.3506 51.4692 56.654 51.7202 57.0178 51.8717C57.3815 52.0232 57.8962 52.1395 58.5588 52.2236C58.7762 52.2221 58.98 52.1808 59.1747 52.0966Z" fill="#00163A"/>
<path d="M67.7101 56.3938L66.4543 56.1933L65.4733 55.0119C64.8061 54.2085 64.3699 53.4954 64.1692 52.8756C64.0243 52.4226 63.9503 52.0431 63.9488 51.7324C63.9473 51.4233 64.0288 50.7316 64.1933 49.6588C64.3684 48.5203 64.5541 47.6281 64.7533 46.9823C64.951 46.3381 65.2469 45.7045 65.6378 45.0847C65.9004 44.6654 66.3381 44.0961 66.9509 43.3754C67.5637 42.6546 67.9894 42.22 68.2278 42.0685C68.5991 41.8007 68.8225 41.6339 68.898 41.5665C68.9161 41.5497 69.3508 41.3569 70.1991 40.9881C70.6564 40.8044 70.999 40.6912 71.2285 40.6483C71.4579 40.607 71.7658 40.6101 72.1537 40.6606C73.3551 40.7784 73.9076 41.1549 73.811 41.7915C73.7672 42.0761 73.6268 42.2904 73.3914 42.4327C73.1544 42.575 72.8963 42.6454 72.6171 42.6454C72.4359 42.6454 72.2337 42.5107 72.0118 42.2429C71.8865 42.0914 71.6964 41.9369 71.4398 41.7777C71.1832 41.6186 70.9719 41.5482 70.8043 41.5635C70.3847 41.614 69.9093 41.8313 69.381 42.2169C68.8512 42.6025 68.3969 43.1213 68.0165 43.7748C67.8867 43.9752 67.7433 44.2936 67.5849 44.7297C67.4279 45.1658 67.3298 45.4 67.2905 45.4336C67.2302 45.501 67.043 46.3472 66.7275 47.9709C66.4151 49.4614 66.3215 50.6964 66.4423 51.6773C66.563 52.6567 66.9253 53.5489 67.5275 54.3539C67.8415 54.7732 68.0965 55.044 68.2927 55.1711C68.4875 55.2965 68.7667 55.3593 69.1289 55.3593L70.6157 55.1833L72.3092 53.9774C72.5235 53.9774 72.6367 54.1029 72.6473 54.3539C72.6639 54.5712 72.5974 54.6798 72.448 54.6798C72.3152 54.6798 71.9771 54.9476 71.4337 55.4832C70.8949 55.9852 70.3923 56.3035 69.9274 56.4382C69.5168 56.5392 69.2527 56.5881 69.138 56.5881C69.0233 56.5943 68.5478 56.5269 67.7101 56.3938Z" fill="#00163A"/>
<path d="M73.2827 56.7963C73.2404 56.5285 73.5332 54.2498 74.1596 49.9619C74.7075 46.1758 75.0411 43.5789 75.1588 42.1725C75.1754 41.6369 75.2388 41.1426 75.349 40.6896C75.4592 40.2382 75.5814 39.9536 75.7158 39.8357C75.7731 39.7852 76.0342 39.7439 76.5021 39.7102L77.198 39.6858L77.0833 40.9161C76.9731 42.927 76.795 44.7266 76.5504 46.3182C76.4267 47.1216 76.4297 47.5577 76.5595 47.6251C76.6893 47.6924 77.0153 47.4246 77.5361 46.8216C78.4085 45.8667 78.902 45.3388 79.0152 45.2393C79.4771 44.8031 79.9027 44.3425 80.2906 43.8574C80.6997 43.3386 81.071 42.9117 81.403 42.5765C81.9087 42.0746 82.2332 41.7303 82.3781 41.5466C82.5215 41.363 82.6241 41.262 82.6845 41.2452C82.7449 41.2283 82.8218 41.2865 82.9169 41.4211C83.0286 41.5558 83.0799 41.6721 83.0724 41.7731C83.0648 41.8741 82.9848 42.1006 82.8324 42.451C82.532 43.1213 81.3819 44.3272 79.382 46.0687C78.2183 47.091 77.607 47.8026 77.5451 48.205C77.5089 48.4392 77.6327 48.707 77.9164 49.0085C78.2273 49.3436 78.4281 49.6451 78.5202 49.9129C78.6243 50.1975 78.822 50.4653 79.1133 50.7163C79.4348 50.9841 79.6794 51.2182 79.8469 51.4202C80.0552 51.6712 80.2831 51.7967 80.5306 51.7967C80.7948 51.7967 80.9502 51.8549 80.9985 51.9727C81.0302 52.0905 81.403 52.1318 82.117 52.0982C82.5969 52.0813 82.8973 52.0905 83.0166 52.1227C83.1358 52.1563 83.1916 52.2405 83.1886 52.3736C83.1886 52.6919 83.0211 53.0011 82.6875 53.3041C82.3524 53.6055 81.9208 53.757 81.394 53.757C80.8823 53.757 80.6106 53.7065 80.5759 53.6071C80.5502 53.5566 80.4733 53.4724 80.342 53.3561C80.2122 53.2398 80.0899 53.1725 79.9767 53.1556C79.7533 53.1051 79.3548 52.7501 78.7798 52.0875C78.2047 51.4264 77.6734 50.701 77.1844 49.9144C76.7436 49.2441 76.4644 48.909 76.3497 48.909C76.2335 48.909 76.0825 49.4951 75.8939 50.6673C75.7052 51.8396 75.5784 52.9628 75.512 54.034C75.4199 55.4909 75.1226 56.4045 74.6215 56.7733C74.3453 56.9569 74.0675 57.0533 73.7853 57.0625C73.5046 57.0671 73.337 56.9799 73.2827 56.7963Z" fill="#00163A"/>
<path d="M85.3621 56.5437C85.0587 56.4764 84.8806 56.4014 84.8278 56.3173C84.7749 56.2331 84.7689 56.0571 84.8097 55.7893C84.9787 54.6844 85.2127 53.0592 85.5085 50.9152C85.8043 48.7712 86.0624 46.8568 86.2798 45.1735C86.4971 43.4901 86.5998 42.6316 86.5892 42.5979C86.553 42.5138 86.2586 42.4969 85.7062 42.5474C85.4043 42.5811 84.7523 42.6393 83.7501 42.7234L82.6422 42.8489L82.8505 42.2965C82.9894 41.9277 83.1765 41.6522 83.4105 41.467C83.6444 41.2834 83.8784 41.2406 84.1093 41.3416C84.3418 41.4426 84.7161 41.4165 85.2338 41.2666C85.7681 41.1151 86.1394 41.0569 86.3492 41.0906C86.6737 41.1242 86.9997 41.0998 87.3258 41.0156C88.3536 40.7646 89.5128 40.5963 90.8033 40.5137C92.0938 40.4295 92.8591 40.4723 93.096 40.6391C93.2168 40.7065 93.2636 40.8396 93.2319 41.0416C93.2002 41.2421 93.0447 41.3431 92.7655 41.3431C92.5678 41.3431 92.3263 41.4104 92.0425 41.5436C91.7935 41.6614 91.1565 41.7777 90.1332 41.8955L88.5725 42.0715L88.3491 43.5284C88.1876 44.5843 87.8299 47.6082 87.2775 52.5986C87.1461 53.7708 87.0435 54.5543 86.9665 54.9476C86.8896 55.3409 86.7688 55.6975 86.6043 56.0158C86.3673 56.4841 86.2073 56.7197 86.1258 56.7197C86.0277 56.7197 85.7726 56.6616 85.3621 56.5437Z" fill="#00163A"/>
<path d="M98.3788 53.4035C98.3214 53.2367 98.2686 52.8847 98.2188 52.3476C98.166 51.7278 98.083 51.0836 97.9713 50.4133L97.8083 49.3834L95.7404 49.4844C94.7926 49.5349 94.1873 49.5808 93.9262 49.6221C93.6636 49.6634 93.4553 49.7598 93.2998 49.9113C93.0598 50.0781 92.921 50.2878 92.8817 50.5388C92.8485 50.7561 92.7881 50.8831 92.7006 50.9152C92.5768 50.9657 92.3383 51.284 91.9852 51.8701C91.3844 52.7746 90.8999 53.3025 90.5301 53.4525C90.3716 53.5198 90.3082 53.4448 90.3415 53.226C90.3565 53.125 90.3943 52.9919 90.4531 52.8235C90.5301 52.6399 90.6614 52.3797 90.8441 52.0446C91.9187 50.3031 92.3942 49.3558 92.2704 49.2059C92.1316 49.0391 92.0742 48.8707 92.0999 48.7039C92.1089 48.5371 92.1542 48.4315 92.2342 48.3902C92.3142 48.3489 92.4863 48.3275 92.7504 48.3275C93.1459 48.3275 93.3677 48.2265 93.4145 48.026C93.4839 47.7919 93.7828 47.2884 94.3141 46.5186C94.8665 45.7152 95.1488 45.2714 95.1624 45.1872C95.1835 45.0526 95.2605 44.9271 95.3933 44.8108C95.5835 44.644 95.7948 44.292 96.0257 43.7549C96.2974 43.1688 96.554 42.7341 96.7955 42.448C97.037 42.1633 97.2634 42.0287 97.4762 42.0455C97.7539 42.0623 98.0317 42.2169 98.3079 42.5107C98.5841 42.8045 98.7109 43.0769 98.6897 43.3279C98.6716 43.764 98.7456 44.2492 98.9116 44.7848C99.0535 45.2546 99.1999 45.9065 99.3523 46.7451C99.6195 47.9005 99.867 48.7636 100.092 49.3329C100.186 49.5838 100.278 50.0873 100.368 50.8402C100.459 51.5947 100.475 52.0966 100.421 52.3476C100.388 52.5649 100.326 52.7241 100.237 52.8251C100.148 52.9261 99.9727 53.0179 99.7116 53.1021C99.1335 53.3194 98.7773 53.4418 98.6414 53.4663C98.5056 53.4908 98.418 53.4709 98.3788 53.4035ZM97.3238 48.202C97.4128 48.052 97.3721 47.4567 97.2015 46.4176C97.0309 45.3785 96.8876 44.8689 96.7698 44.8858C96.6868 44.8858 96.6023 45.0113 96.5132 45.2622C96.403 45.5469 96.2687 45.7229 96.1102 45.7902C95.9518 45.8575 95.8567 45.9907 95.8265 46.1927C95.7797 46.4941 95.6604 46.7375 95.4672 46.9211C95.2363 47.1384 95.108 47.3236 95.0854 47.4735C95.0673 47.5914 94.9631 47.7337 94.7729 47.9005C94.6371 48.0352 94.5692 48.1224 94.5722 48.1637C94.5737 48.205 94.619 48.2601 94.708 48.3275C94.8409 48.4285 95.2891 48.4621 96.0529 48.4285C96.8151 48.3948 97.2392 48.3198 97.3238 48.202Z" fill="#00163A"/>
<path d="M101.77 55.6148C101.529 55.3639 101.428 55.1037 101.47 54.8359C101.511 54.3508 101.758 52.7164 102.211 49.9358C102.662 47.1552 102.931 45.6479 103.017 45.4122C103.111 45.1276 103.194 44.9562 103.269 44.8965C103.345 44.8383 103.514 44.8077 103.778 44.8077C104.157 44.8077 104.466 44.8919 104.703 45.0587C104.849 45.1765 104.917 45.3556 104.904 45.5989C104.892 45.8422 104.772 46.5324 104.548 47.6725C103.886 51.0055 103.44 53.2168 103.207 54.3064C103.09 54.8589 102.973 55.1864 102.859 55.2858C102.706 55.4205 102.619 55.5628 102.594 55.7128C102.54 56.0648 102.353 56.1061 102.031 55.8383C101.941 55.7908 101.853 55.7143 101.77 55.6148ZM103.963 42.2965C103.745 42.2123 103.571 42.0072 103.44 41.6813C103.308 41.3553 103.293 41.0738 103.396 40.8396C103.512 40.6223 103.704 40.3882 103.974 40.1357C104.244 39.8847 104.525 39.7424 104.819 39.7087C105.112 39.675 105.358 39.747 105.553 39.923C105.749 40.0989 105.862 40.3469 105.897 40.6636C105.898 40.8641 105.811 41.1197 105.631 41.4303C105.452 41.741 105.225 41.9797 104.952 42.1465C104.572 42.3638 104.243 42.4143 103.963 42.2965Z" fill="#00163A"/>
<path d="M105.064 56.5193C104.994 56.2178 105.003 55.9408 105.092 55.6898C105.258 55.2552 105.373 54.8772 105.44 54.5589C105.542 54.106 105.693 53.604 105.894 53.0516C106.063 52.5986 106.166 52.2481 106.205 51.9956C106.209 51.962 106.378 51.2917 106.712 49.9848C107.015 48.7621 107.391 46.9027 107.841 44.4068L108.531 40.5626L109.02 40.4371C109.296 40.353 109.595 40.3958 109.916 40.5626L110.351 40.7891L109.841 43.3019C109.406 45.5974 109.116 47.1552 108.975 47.9755C108.493 50.8908 108.042 53.1847 107.621 54.8604C107.581 55.0119 107.581 55.116 107.622 55.1741C107.663 55.2323 107.741 55.2537 107.861 55.2369C108.363 55.1864 109.673 55.0272 111.792 54.7594C112.028 54.7257 112.226 54.7303 112.384 54.7716C112.543 54.8145 112.635 54.8803 112.662 54.9721C112.689 55.0639 112.659 55.1772 112.573 55.3118C112.41 55.5123 111.688 55.7602 110.405 56.0525C109.124 56.3448 108.104 56.4917 107.344 56.4917C106.982 56.4917 106.789 56.5667 106.765 56.7182C106.739 56.885 106.463 56.9692 105.935 56.9692C105.589 56.9692 105.37 56.9447 105.278 56.8942C105.188 56.8452 105.115 56.7197 105.064 56.5193Z" fill="#00163A"/>
</svg>
